#VRML V2.0 utf8
# 3D model generated by easyeda2kicad.py (https://github.com/uPesy/easyeda2kicad.py)

Shape{
    appearance Appearance {
        material  Material 	{
            diffuseColor 1.0 1.0 0.0
            specularColor 0.5019607843137255 0.5019607843137255 0.0
            ambientIntensity 0.886
            transparency 0.0
            shininess 0.5
        }
    }
    geometry IndexedFaceSet {
        ccw TRUE
        solid FALSE
        coord DEF co Coordinate {
            point [
                0.1382 -1.6563 0.7364, 0.247 -1.6563 0.8316, 0.1382 1.6531 0.7364, 0.2847 -1.6529 0.8675, 0.3204 -1.6414 0.9033, 0.3365 -1.6362 0.9195, 0.3365 1.633 0.9195, 0.3208 1.6397 0.9034, 0.2846 1.6497 0.8674, 0.247 1.6531 0.8316, 0.4275 -1.4494 1.0192, 0.462 -1.5024 1.0601, 0.4801 -1.4594 1.0825, 0.4943 -1.4133 1.1003, 0.5045 -1.3645 1.1134, 0.5106 -1.3139 1.1213, 0.3864 -1.6035 0.9727, 0.4149 -1.575 1.0047, 0.4403 -1.541 1.0342, 0.4621 1.499 1.0603, 0.4403 1.5378 1.0342, 0.4275 1.4462 1.0192, 0.4151 1.5716 1.0049, 0.3864 1.6003 0.9727, 0.5045 1.3613 1.1134, 0.4942 1.4102 1.1002, 0.4801 1.4562 1.0825, 0.5127 -1.2626 1.124, 0.5127 1.2594 1.124, 0.5106 1.3109 1.1213, -1.3574 -1.6563 0.2008, -1.0879 -1.6563 0.2163, -1.0879 -1.0912 0.2163, -1.1459 -1.0665 0.2103, -1.2064 -1.047 0.2056, -1.3574 -1.047 0.2008, -0.822 -1.6563 0.2624, -0.822 -1.3093 0.2625, -0.831 -1.3 0.2603, -0.881 -1.2414 0.2494, -0.9367 -1.189 0.2386, -0.9978 -1.1428 0.2284, -1.0646 -1.1046 0.2194, -0.7194 -1.3721 0.2888, -0.7619 -1.3569 0.2773, -0.7997 -1.3324 0.2677, 0.0448 1.3311 0.6636, 0.076 1.2999 0.6871, 0.0075 1.3546 0.6365, -0.0341 1.3691 0.6076, -0.0798 1.6531 0.5773, -0.0779 1.3741 0.5786, 0.0995 1.2626 0.7053, 0.1079 1.2424 0.712, 0.114 1.221 0.7169, 0.119 -1.1804 0.7208, 0.119 1.1772 0.7208, 0.1177 1.1994 0.7198, 0.1173 -1.2063 0.7195, 0.1122 -1.2314 0.7155, 0.1038 -1.2561 0.7088, 0.0926 -1.2788 0.6999, 0.078 -1.3006 0.6886, 0.0613 -1.3196 0.6759, 0.0205 -1.3509 0.6458, -0.0269 -1.3706 0.6125, -0.0798 -1.6563 0.5773, -0.0779 -1.3773 0.5786, -0.0798 -1.3773 0.5773, -0.3146 -1.6563 0.4442, -0.3146 -1.3773 0.4442, -0.5631 -1.6563 0.3387, -0.5631 -1.3773 0.3387, -0.6746 -1.3773 0.3019, -0.822 1.6531 0.2624, -0.7997 1.3292 0.2677, -0.7619 1.3537 0.2773, -0.7194 1.3689 0.2888, -0.6746 1.3741 0.3019, -0.5631 1.6531 0.3387, -0.5631 1.3741 0.3387, -0.3146 1.6531 0.4442, -0.3146 1.3741 0.4442, -0.0798 1.3741 0.5773, -1.0638 1.1001 0.2191, -0.998 1.1395 0.2284, -1.0879 1.6531 0.2163, -0.9367 1.1858 0.2386, -0.881 1.2383 0.2495, -0.831 1.2968 0.2603, -0.822 1.3061 0.2625, -1.3574 1.0438 0.2008, -1.2064 1.0438 0.2056, -1.3574 1.6531 0.2008, -1.1459 1.0633 0.2103, -1.0879 1.0893 0.2165, 0.5752 1.2594 1.0761, 0.5752 -1.2626 1.0761, -0.2798 -1.3773 0.3736, -0.2798 -1.6563 0.3736, -0.5365 -1.6563 0.2646, -0.2798 1.6531 0.3736, -0.2798 1.3741 0.3736, -0.5365 1.3741 0.2646, -0.7997 1.3292 0.1868, -0.8041 1.3247 0.1858, -0.8041 1.6531 0.1858, -0.9367 1.1858 0.1587, -0.998 1.1395 0.1487, -1.0789 1.6531 0.138, -0.881 1.2383 0.1691, -0.831 1.2968 0.1796, -1.2064 1.0438 0.1267, -1.3574 1.0438 0.122, -1.1412 1.0651 0.1317, -1.3574 1.6531 0.122, -1.0789 1.0933 0.1382, -1.0638 1.1001 0.1398, -0.6746 1.3741 0.2197, -0.7194 1.3689 0.2071, -0.7619 1.3537 0.196, -0.5365 1.6531 0.2646, -0.0779 1.3741 0.4854, -0.0371 1.6531 0.5112, -0.0372 1.3695 0.5112, -0.0371 -1.6563 0.5112, -0.0372 -1.3719 0.5113, -0.0269 -1.3706 0.5178, 0.1882 -1.6563 0.6756, 0.0205 -1.3509 0.5496, 0.0613 -1.3196 0.5782, 0.078 -1.3005 0.5903, 0.0926 -1.2788 0.601, 0.1038 -1.2561 0.6094, 0.1122 -1.2314 0.6157, 0.1173 -1.2063 0.6195, 0.119 -1.1804 0.6208, 0.119 1.1772 0.6208, 0.1177 1.1995 0.6199, 0.1882 1.6531 0.6756, 0.114 1.221 0.6171, 0.1079 1.2423 0.6124, 0.0995 1.2626 0.6061, 0.076 1.2999 0.5888, 0.0448 1.3311 0.5665, 0.0075 1.3546 0.5407, -0.0341 1.3691 0.5131, -0.0779 -1.3773 0.4854, -0.7994 -1.3319 0.1869, -0.7619 -1.3569 0.196, -0.8041 -1.6563 0.1858, -0.7194 -1.3721 0.2071, -0.6746 -1.3773 0.2197, -0.5365 -1.3773 0.2646, -0.9367 -1.189 0.1587, -1.0789 -1.6563 0.138, -0.9978 -1.1428 0.1487, -1.0643 -1.1041 0.14, -0.881 -1.2414 0.1691, -0.831 -1.3 0.1796, -0.8041 -1.3287 0.1858, -1.3574 -1.047 0.122, -1.2064 -1.047 0.1267, -1.3574 -1.6563 0.122, -1.1412 -1.0683 0.1317, -1.0789 -1.0956 0.138, 0.3103 1.6531 0.783, 0.3478 1.6497 0.8191, 0.3835 1.6388 0.8551, 0.3103 -1.6563 0.783, 0.3477 -1.6529 0.819, 0.3838 -1.6429 0.8551, 0.3932 1.6358 0.8648, 0.3931 -1.6382 0.8648, 0.4872 1.4476 0.9678, 0.5245 1.4992 1.0122, 0.5426 1.4562 1.0346, 0.5568 1.4101 1.0524, 0.567 1.3613 1.0655, 0.5731 1.3107 1.0734, 0.4222 1.6203 0.8953, 0.4491 1.6003 0.9247, 0.4776 1.5718 0.9567, 0.5029 1.5378 0.9862, 0.5247 -1.5022 1.0124, 0.5029 -1.541 0.9862, 0.4872 -1.4504 0.9678, 0.4777 -1.5748 0.9569, 0.4491 -1.6035 0.9247, 0.4221 -1.6236 0.8952, 0.567 -1.3645 1.0655, 0.5568 -1.4134 1.0524, 0.5426 -1.4594 1.0346, 0.5731 -1.3141 1.0734, -1.3781 -1.499 0.122, -1.3859 -1.4801 0.122, -1.3984 -1.4637 0.122, -1.4147 -1.4512 0.122, -2.0129 -1.4407 0.122, -2.5841 -0.9317 0.122, -2.5026 -0.9942 0.122, -2.8181 -1.1977 0.122, -2.8589 -1.1664 0.122, -2.6467 -0.8501 0.122, -1.3754 1.6531 0.122, -1.3754 1.5162 0.122, -1.3781 1.4958 0.122, -1.3859 1.4769 0.122, -1.3754 -1.5194 0.122, -1.3754 -1.6563 0.122, -2.2687 -1.36 0.122, -2.2809 -1.3304 0.122, -2.3005 -1.305 0.122, -2.0129 -1.6563 0.122, -2.2645 -1.6563 0.122, -2.2645 -1.3918 0.122, -2.7604 -1.3369 0.122, -2.4741 -1.305 0.122, -2.4936 -1.3304 0.122, -1.4337 1.4402 0.122, -1.4147 1.448 0.122, -1.3984 1.4605 0.122, -2.7868 -1.2384 0.122, -2.3873 -1.269 0.122, -2.7672 -1.2859 0.122, -2.4191 -1.2732 0.122, -2.4487 -1.2855 0.122, -2.5101 -1.6563 0.122, -2.7604 -1.6563 0.122, -2.5101 -1.3918 0.122, -2.5059 -1.36 0.122, -2.3057 1.0438 0.122, -2.0129 1.4375 0.122, -1.4541 1.4375 0.122, -1.4337 -1.4434 0.122, -1.4541 -1.4407 0.122, -2.3057 -1.047 0.122, -2.4076 -1.0336 0.122, -2.3555 -1.2732 0.122, -2.3259 -1.2855 0.122, -2.8181 1.1945 0.122, -2.5841 0.9285 0.122, -2.8589 1.1632 0.122, -2.6467 0.8469 0.122, -2.9064 1.1435 0.122, -2.686 0.752 0.122, -2.9064 -1.1467 0.122, -2.9573 -1.14 0.122, -3.4959 0.4466 0.122, -3.5727 -0.3986 0.122, -3.5727 0.3954 0.122, -3.6594 -0.3668 0.122, -3.4331 -0.5175 0.122, -3.4959 -0.4498 0.122, -2.9573 1.1368 0.122, -3.0302 1.1368 0.122, -2.6994 0.6501 0.122, -2.6994 -0.6533 0.122, -2.686 -0.7552 0.122, -2.4191 1.27 0.122, -2.5026 0.991 0.122, -2.4487 1.2823 0.122, -2.4741 1.3018 0.122, -2.4936 1.3272 0.122, -2.3873 1.2658 0.122, -2.3555 1.27 0.122, -2.3259 1.2823 0.122, -2.3005 1.3018 0.122, -2.2809 1.3272 0.122, -2.4076 1.0304 0.122, -3.2118 -1.019 0.122, -3.3878 -0.5979 0.122, -3.8218 -0.3559 0.122, -3.8218 0.3527 0.122, -3.751 -0.3559 0.122, -3.751 0.3527 0.122, -3.6594 0.3636 0.122, -3.4331 0.5143 0.122, -3.3878 0.5947 0.122, -3.2118 1.0158 0.122, -3.1892 1.0561 0.122, -2.7604 1.3337 0.122, -2.7604 1.6531 0.122, -2.5101 1.6531 0.122, -2.2645 1.6531 0.122, -2.0129 1.6531 0.122, -2.2645 1.3886 0.122, -2.2687 1.3568 0.122, -3.076 -1.1346 0.122, -3.1193 -1.1187 0.122, -3.1578 -1.0931 0.122, -2.7868 1.2352 0.122, -2.7672 1.2827 0.122, -2.5059 1.3568 0.122, -2.5101 1.3886 0.122, -3.0302 -1.14 0.122, -3.1892 -1.0593 0.122, -3.1578 1.0899 0.122, -3.1193 1.1155 0.122, -3.076 1.1314 0.122, -3.9961 -0.3559 0.0, -3.9961 0.3527 0.0, -4.8013 0.0804 0.0, -4.8198 0.0564 0.0, -5.5709 0.3527 0.0, -4.619 -0.0596 0.0, -4.6374 -0.0836 0.0, -4.6614 -0.102 0.0, -4.7773 0.0988 0.0, -4.8313 0.0284 0.0, -4.8353 -0.0016 0.0, -5.5709 -0.3559 0.0, -4.8313 -0.0316 0.0, -4.8198 -0.0596 0.0, -4.8013 -0.0836 0.0, -4.7773 -0.102 0.0, -4.619 0.0564 0.0, -4.6374 0.0804 0.0, -4.6614 0.0988 0.0, -4.6074 -0.0316 0.0, -4.6035 -0.0016 0.0, -4.6074 0.0284 0.0, -4.7494 -0.1136 0.0, -4.7194 -0.1175 0.0, -4.6894 -0.1136 0.0, -4.6894 0.1104 0.0, -4.7194 0.1143 0.0, -4.7494 0.1104 0.0, -5.5709 -0.3559 0.0787, -5.5709 0.3527 0.0787, -4.6074 -0.0316 0.0787, -4.619 -0.0596 0.0787, -4.0209 -0.3559 0.0787, -4.6374 -0.0836 0.0787, -4.6614 -0.102 0.0787, -4.7773 -0.102 0.0787, -4.8013 -0.0836 0.0787, -4.6614 0.0988 0.0787, -4.6374 0.0804 0.0787, -4.0209 0.3527 0.0787, -4.619 0.0564 0.0787, -4.6074 0.0284 0.0787, -4.6035 -0.0016 0.0787, -4.6894 -0.1136 0.0787, -4.7194 -0.1175 0.0787, -4.7494 -0.1136 0.0787, -4.8313 0.0284 0.0787, -4.8198 0.0564 0.0787, -4.8013 0.0804 0.0787, -4.7773 0.0988 0.0787, -4.8198 -0.0596 0.0787, -4.8313 -0.0316 0.0787, -4.8353 -0.0016 0.0787, -4.7494 0.1104 0.0787, -4.7194 0.1143 0.0787, -4.6894 0.1104 0.0787, -3.8466 0.3527 0.2008, -3.8466 -0.3559 0.2008, -1.3781 1.4958 0.2008, -1.3754 1.5162 0.2008, -1.3754 1.6531 0.2008, -2.0129 1.4375 0.2008, -2.5841 0.9285 0.2008, -2.5026 0.991 0.2008, -1.4337 -1.4434 0.2008, -1.4147 -1.4512 0.2008, -1.3984 -1.4637 0.2008, -1.3859 -1.4801 0.2008, -1.3859 1.4769 0.2008, -1.3984 1.4605 0.2008, -1.4147 1.448 0.2008, -1.3754 -1.6563 0.2008, -1.3754 -1.5194 0.2008, -1.3781 -1.499 0.2008, -2.3057 -1.047 0.2008, -2.0129 -1.4407 0.2008, -1.4541 -1.4407 0.2008, -2.4076 1.0304 0.2008, -2.3057 1.0438 0.2008, -1.4541 1.4375 0.2008, -1.4337 1.4402 0.2008, -2.3873 1.2658 0.2008, -2.4191 1.27 0.2008, -2.7672 1.2827 0.2008, -2.4487 1.2823 0.2008, -2.4741 1.3018 0.2008, -2.3555 -1.2732 0.2008, -2.3259 -1.2855 0.2008, -2.3005 -1.305 0.2008, -2.2809 -1.3304 0.2008, -2.2645 -1.735 0.2008, -2.0129 -1.735 0.2008, -2.2645 -1.3918 0.2008, -2.2687 -1.36 0.2008, -2.4741 -1.305 0.2008, -3.4331 -0.5175 0.2008, -2.8589 -1.1664 0.2008, -2.7604 -1.3369 0.2008, -2.7604 -1.735 0.2008, -2.5101 -1.735 0.2008, -2.8181 -1.1977 0.2008, -2.7868 -1.2384 0.2008, -2.4936 -1.3304 0.2008, -2.5059 -1.36 0.2008, -2.3873 -1.269 0.2008, -2.4076 -1.0336 0.2008, -2.4191 -1.2732 0.2008, -2.5026 -0.9942 0.2008, -2.4487 -1.2855 0.2008, -2.5841 -0.9317 0.2008, -3.4959 -0.4498 0.2008, -3.2118 -1.019 0.2008, -3.0302 -1.14 0.2008, -3.3878 -0.5979 0.2008, -2.9573 -1.14 0.2008, -2.9064 -1.1467 0.2008, -2.7672 -1.2859 0.2008, -2.5101 -1.3918 0.2008, -2.6467 -0.8501 0.2008, -2.686 -0.7552 0.2008, -3.5727 -0.3986 0.2008, -2.5101 1.7318 0.2008, -2.7604 1.7318 0.2008, -2.5101 1.3886 0.2008, -2.7604 1.3337 0.2008, -2.5059 1.3568 0.2008, -2.4936 1.3272 0.2008, -3.1892 -1.0593 0.2008, -3.1578 -1.0931 0.2008, -3.076 -1.1346 0.2008, -3.1193 -1.1187 0.2008, -2.686 0.752 0.2008, -3.2118 1.0158 0.2008, -2.6994 0.6501 0.2008, -3.3878 0.5947 0.2008, -2.6994 -0.6533 0.2008, -3.4331 0.5143 0.2008, -3.4959 0.4466 0.2008, -3.5727 0.3954 0.2008, -3.6594 0.3636 0.2008, -2.2687 1.3568 0.2008, -2.2809 1.3272 0.2008, -2.3005 1.3018 0.2008, -2.3259 1.2823 0.2008, -2.3555 1.27 0.2008, -2.6467 0.8469 0.2008, -2.9573 1.1368 0.2008, -3.0302 1.1368 0.2008, -3.076 1.1314 0.2008, -3.1193 1.1155 0.2008, -2.7868 1.2352 0.2008, -2.8181 1.1945 0.2008, -2.8589 1.1632 0.2008, -2.9064 1.1435 0.2008, -3.1578 1.0899 0.2008, -3.1892 1.0561 0.2008, -3.751 0.3527 0.2008, -3.751 -0.3559 0.2008, -3.6594 -0.3668 0.2008, -2.0129 1.7318 0.2008, -2.2645 1.7318 0.2008, -2.2645 1.3886 0.2008, -2.0129 -1.6563 0.0039, -2.0129 -1.735 0.0039, -2.7604 -1.6563 0.0039, -2.7604 -1.735 0.0039, -2.0129 1.6531 0.0039, -2.0129 1.7318 0.0039, -2.7604 1.6531 0.0039, -2.7604 1.7318 0.0039, -2.2645 1.6531 0.0039, -2.2645 1.7318 0.0039, -2.5101 1.6531 0.0039, -2.5101 1.7318 0.0039, -2.2645 -1.6563 0.0039, -2.2645 -1.735 0.0039, -2.5101 -1.6563 0.0039, -2.5101 -1.735 0.0039
            ]
        }
        coordIndex [
            0,1,2,-1,2,1,3,-1,2,3,4,-1,5,6,4,-1,4,6,7,-1,7,8,4,-1,4,8,9,-1,4,9,2,-1,10,11,12,-1,12,13,10,-1,10,13,14,-1,10,14,15,-1,16,17,10,-1,10,17,18,-1,10,18,11,-1,19,20,21,-1,21,20,22,-1,22,23,21,-1,21,23,6,-1,21,6,10,-1,10,6,5,-1,10,5,16,-1,24,25,21,-1,21,25,26,-1,21,26,19,-1,15,27,10,-1,10,27,28,-1,10,28,21,-1,21,28,29,-1,21,29,24,-1,30,31,32,-1,32,33,30,-1,30,33,34,-1,30,34,35,-1,31,36,37,-1,37,38,31,-1,31,38,39,-1,31,39,40,-1,40,41,31,-1,31,41,42,-1,31,42,32,-1,43,44,36,-1,36,44,45,-1,36,45,37,-1,46,47,2,-1,46,2,48,-1,48,2,49,-1,49,2,50,-1,49,50,51,-1,47,52,2,-1,2,52,53,-1,2,53,54,-1,55,0,56,-1,56,0,2,-1,56,2,57,-1,57,2,54,-1,55,58,0,-1,0,58,59,-1,0,59,60,-1,60,61,0,-1,0,61,62,-1,0,62,63,-1,63,64,0,-1,0,64,65,-1,0,65,66,-1,65,67,66,-1,66,67,68,-1,66,68,69,-1,69,68,70,-1,69,70,71,-1,71,70,72,-1,71,72,36,-1,36,72,73,-1,36,73,43,-1,74,75,76,-1,76,77,74,-1,74,77,78,-1,74,78,79,-1,79,78,80,-1,79,80,81,-1,81,80,82,-1,81,82,50,-1,50,82,83,-1,50,83,51,-1,84,85,86,-1,86,85,87,-1,87,88,86,-1,86,88,89,-1,86,89,74,-1,74,89,90,-1,74,90,75,-1,91,92,93,-1,93,92,94,-1,93,94,86,-1,86,94,95,-1,86,95,84,-1,28,27,96,-1,96,27,97,-1,98,99,100,-1,101,102,103,-1,104,105,106,-1,107,108,109,-1,107,109,110,-1,106,105,109,-1,109,105,111,-1,109,111,110,-1,112,113,114,-1,114,113,115,-1,114,115,116,-1,116,115,109,-1,116,109,117,-1,117,109,108,-1,118,119,106,-1,106,119,120,-1,106,120,104,-1,118,106,103,-1,103,106,121,-1,103,121,101,-1,102,101,122,-1,122,101,123,-1,122,123,124,-1,125,126,127,-1,125,127,128,-1,128,127,129,-1,128,129,130,-1,130,131,128,-1,128,131,132,-1,128,132,133,-1,133,134,128,-1,128,134,135,-1,128,135,136,-1,137,138,139,-1,139,138,140,-1,140,141,139,-1,139,141,142,-1,139,142,143,-1,143,144,139,-1,139,144,145,-1,139,145,123,-1,123,145,146,-1,123,146,124,-1,99,98,125,-1,125,98,147,-1,125,147,126,-1,148,149,150,-1,149,151,150,-1,150,151,152,-1,150,152,100,-1,100,152,153,-1,100,153,98,-1,154,155,156,-1,156,155,157,-1,154,158,155,-1,155,158,159,-1,155,159,150,-1,150,159,160,-1,150,160,148,-1,161,162,163,-1,163,162,164,-1,163,164,155,-1,155,164,165,-1,155,165,157,-1,166,128,139,-1,139,128,136,-1,139,136,137,-1,166,167,128,-1,128,167,168,-1,128,168,169,-1,169,168,170,-1,170,168,171,-1,171,168,172,-1,171,172,173,-1,174,175,176,-1,176,177,174,-1,174,177,178,-1,174,178,179,-1,174,180,181,-1,181,182,174,-1,174,182,183,-1,174,183,175,-1,184,185,186,-1,186,185,187,-1,186,187,188,-1,188,189,186,-1,186,189,173,-1,186,173,174,-1,174,173,172,-1,174,172,180,-1,190,191,186,-1,186,191,192,-1,186,192,184,-1,179,96,174,-1,174,96,97,-1,174,97,186,-1,186,97,193,-1,186,193,190,-1,194,195,161,-1,161,195,196,-1,161,196,197,-1,198,199,200,-1,201,202,203,-1,204,115,205,-1,205,115,113,-1,205,113,206,-1,206,113,207,-1,194,161,208,-1,208,161,163,-1,208,163,209,-1,210,211,198,-1,198,211,212,-1,198,212,199,-1,213,214,198,-1,198,214,215,-1,198,215,210,-1,216,217,218,-1,219,220,113,-1,113,220,221,-1,113,221,207,-1,222,223,224,-1,224,223,225,-1,224,225,216,-1,216,225,226,-1,216,226,217,-1,227,228,229,-1,229,228,216,-1,229,216,230,-1,230,216,218,-1,231,232,113,-1,113,232,233,-1,113,233,219,-1,197,234,161,-1,161,234,235,-1,161,235,236,-1,236,235,198,-1,236,198,237,-1,237,198,200,-1,222,201,223,-1,223,201,203,-1,223,203,238,-1,238,203,199,-1,238,199,239,-1,239,199,212,-1,240,241,242,-1,242,241,243,-1,242,243,244,-1,244,243,245,-1,202,246,244,-1,244,246,247,-1,248,249,250,-1,250,249,251,-1,252,253,244,-1,244,253,249,-1,244,249,254,-1,254,249,255,-1,245,256,244,-1,244,256,257,-1,244,257,202,-1,202,257,258,-1,202,258,203,-1,259,260,261,-1,261,260,241,-1,261,241,262,-1,262,241,240,-1,262,240,263,-1,259,264,260,-1,260,264,265,-1,260,265,266,-1,232,267,268,-1,231,269,232,-1,232,269,260,-1,232,260,267,-1,267,260,266,-1,247,270,244,-1,244,270,271,-1,244,271,252,-1,272,273,274,-1,274,273,275,-1,274,275,251,-1,251,275,276,-1,251,276,250,-1,248,277,249,-1,249,277,278,-1,249,278,255,-1,255,278,279,-1,255,279,280,-1,281,282,283,-1,284,285,286,-1,286,285,232,-1,286,232,287,-1,287,232,268,-1,288,289,290,-1,240,291,263,-1,263,291,292,-1,263,292,293,-1,293,292,281,-1,293,281,294,-1,294,281,283,-1,247,295,270,-1,270,295,288,-1,270,288,296,-1,296,288,290,-1,280,297,255,-1,255,297,298,-1,255,298,299,-1,272,300,273,-1,273,300,301,-1,302,303,304,-1,305,300,306,-1,306,300,307,-1,302,304,308,-1,303,309,304,-1,304,309,310,-1,304,310,311,-1,311,310,312,-1,312,313,311,-1,311,313,314,-1,311,314,315,-1,316,317,301,-1,301,317,318,-1,305,319,300,-1,300,319,320,-1,300,320,301,-1,301,320,321,-1,301,321,316,-1,315,322,311,-1,311,322,323,-1,311,323,300,-1,300,323,324,-1,300,324,307,-1,318,325,301,-1,301,325,326,-1,301,326,304,-1,304,326,327,-1,304,327,308,-1,311,328,304,-1,304,328,329,-1,330,331,332,-1,332,331,333,-1,332,333,334,-1,335,336,328,-1,337,338,339,-1,338,340,339,-1,339,340,341,-1,339,341,332,-1,332,341,342,-1,332,342,330,-1,334,343,332,-1,332,343,344,-1,332,344,328,-1,328,344,345,-1,328,345,335,-1,346,347,329,-1,329,347,348,-1,329,348,349,-1,336,350,328,-1,328,350,351,-1,328,351,329,-1,329,351,352,-1,329,352,346,-1,349,353,329,-1,329,353,354,-1,329,354,339,-1,339,354,355,-1,339,355,337,-1,339,332,356,-1,356,332,357,-1,358,91,359,-1,359,91,93,-1,359,93,360,-1,361,362,363,-1,364,365,35,-1,35,365,366,-1,35,366,367,-1,358,368,91,-1,91,368,369,-1,91,369,370,-1,371,30,372,-1,372,30,35,-1,372,35,373,-1,373,35,367,-1,374,375,35,-1,35,375,376,-1,35,376,364,-1,363,377,361,-1,361,377,378,-1,361,378,379,-1,379,378,91,-1,379,91,380,-1,380,91,370,-1,381,382,383,-1,383,382,384,-1,383,384,385,-1,386,387,374,-1,374,387,388,-1,374,388,375,-1,375,388,389,-1,390,391,392,-1,392,391,375,-1,392,375,393,-1,393,375,389,-1,394,395,396,-1,397,398,399,-1,396,400,394,-1,394,400,401,-1,394,401,402,-1,402,401,403,-1,386,374,404,-1,404,374,405,-1,404,405,406,-1,406,405,407,-1,406,407,408,-1,408,407,409,-1,408,409,394,-1,394,409,410,-1,394,410,395,-1,411,412,413,-1,413,412,414,-1,413,414,395,-1,395,414,415,-1,395,415,396,-1,401,416,403,-1,403,416,397,-1,403,397,417,-1,417,397,399,-1,409,418,410,-1,410,418,419,-1,410,419,420,-1,421,422,423,-1,423,422,424,-1,423,424,425,-1,425,424,383,-1,425,383,426,-1,426,383,385,-1,411,427,412,-1,412,427,428,-1,412,428,429,-1,429,428,430,-1,431,432,433,-1,433,432,434,-1,433,434,435,-1,434,436,435,-1,435,436,437,-1,435,437,419,-1,419,437,438,-1,419,438,420,-1,420,438,439,-1,440,441,361,-1,361,441,442,-1,361,442,362,-1,442,443,362,-1,362,443,444,-1,362,444,445,-1,445,444,381,-1,446,447,431,-1,431,447,448,-1,431,448,449,-1,383,450,381,-1,381,450,451,-1,381,451,445,-1,445,451,452,-1,445,452,431,-1,431,452,453,-1,431,453,446,-1,449,454,431,-1,431,454,455,-1,431,455,432,-1,356,357,456,-1,456,357,457,-1,456,457,439,-1,439,457,458,-1,439,458,420,-1,459,460,361,-1,361,460,461,-1,361,461,440,-1,371,209,30,-1,30,209,163,-1,30,163,31,-1,31,163,155,-1,31,155,36,-1,36,155,150,-1,36,150,71,-1,71,150,100,-1,71,100,69,-1,69,100,99,-1,69,99,66,-1,66,99,125,-1,66,125,0,-1,0,125,128,-1,0,128,1,-1,1,128,169,-1,208,209,372,-1,372,209,371,-1,376,375,235,-1,235,375,198,-1,198,375,213,-1,213,375,391,-1,213,391,462,-1,462,391,463,-1,464,465,228,-1,228,465,398,-1,228,398,216,-1,216,398,397,-1,414,412,247,-1,247,412,295,-1,411,413,270,-1,270,413,271,-1,457,274,458,-1,458,274,251,-1,458,251,420,-1,420,251,249,-1,420,249,410,-1,410,249,253,-1,410,253,395,-1,395,253,252,-1,395,252,413,-1,413,252,271,-1,274,457,272,-1,272,457,357,-1,272,357,300,-1,300,357,332,-1,300,332,311,-1,311,332,328,-1,359,360,205,-1,205,360,204,-1,233,232,379,-1,379,232,361,-1,466,467,285,-1,285,467,459,-1,285,459,232,-1,232,459,361,-1,281,424,282,-1,282,424,422,-1,282,422,468,-1,468,422,469,-1,254,255,446,-1,446,255,447,-1,279,278,432,-1,432,278,434,-1,434,278,436,-1,436,278,277,-1,436,277,437,-1,437,277,248,-1,437,248,438,-1,438,248,250,-1,438,250,439,-1,439,250,276,-1,439,276,456,-1,456,276,275,-1,456,275,356,-1,356,275,273,-1,356,273,339,-1,339,273,301,-1,339,301,329,-1,329,301,304,-1,9,166,2,-1,2,166,139,-1,2,139,50,-1,50,139,123,-1,50,123,81,-1,81,123,101,-1,81,101,79,-1,79,101,121,-1,79,121,74,-1,74,121,106,-1,74,106,86,-1,86,106,109,-1,86,109,93,-1,93,109,115,-1,93,115,360,-1,360,115,204,-1,286,461,284,-1,284,461,460,-1,284,460,470,-1,470,460,471,-1,294,423,293,-1,293,423,425,-1,293,425,263,-1,263,425,426,-1,263,426,262,-1,262,426,385,-1,262,385,261,-1,261,385,384,-1,261,384,259,-1,259,384,382,-1,259,382,264,-1,264,382,381,-1,264,381,265,-1,265,381,444,-1,265,444,266,-1,266,444,443,-1,266,443,267,-1,267,443,442,-1,267,442,268,-1,268,442,441,-1,268,441,287,-1,287,441,440,-1,287,440,286,-1,286,440,461,-1,472,473,283,-1,283,473,421,-1,283,421,294,-1,294,421,423,-1,215,392,210,-1,210,392,393,-1,210,393,211,-1,211,393,389,-1,211,389,212,-1,212,389,388,-1,212,388,239,-1,239,388,387,-1,239,387,238,-1,238,387,386,-1,238,386,223,-1,223,386,404,-1,223,404,225,-1,225,404,406,-1,225,406,226,-1,226,406,408,-1,226,408,217,-1,217,408,394,-1,217,394,218,-1,218,394,402,-1,218,402,230,-1,230,402,403,-1,230,403,229,-1,229,403,417,-1,474,475,214,-1,214,475,390,-1,214,390,215,-1,215,390,392,-1,229,417,227,-1,227,417,399,-1,227,399,476,-1,476,399,477,-1,208,372,194,-1,194,372,373,-1,194,373,195,-1,195,373,367,-1,195,367,196,-1,196,367,366,-1,196,366,197,-1,197,366,365,-1,197,365,234,-1,234,365,364,-1,234,364,235,-1,235,364,376,-1,233,379,219,-1,219,379,380,-1,219,380,220,-1,220,380,370,-1,220,370,221,-1,221,370,369,-1,221,369,207,-1,207,369,368,-1,207,368,206,-1,206,368,358,-1,206,358,205,-1,205,358,359,-1,254,446,244,-1,244,446,453,-1,244,453,242,-1,242,453,452,-1,242,452,240,-1,240,452,451,-1,240,451,291,-1,291,451,450,-1,291,450,292,-1,292,450,383,-1,292,383,281,-1,281,383,424,-1,216,397,224,-1,224,397,416,-1,224,416,222,-1,222,416,401,-1,222,401,201,-1,201,401,400,-1,201,400,202,-1,202,400,396,-1,202,396,246,-1,246,396,415,-1,246,415,247,-1,247,415,414,-1,411,270,296,-1,411,296,427,-1,427,296,290,-1,427,290,428,-1,428,290,289,-1,428,289,430,-1,430,289,288,-1,430,288,429,-1,429,288,295,-1,429,295,412,-1,447,255,299,-1,447,299,448,-1,448,299,298,-1,448,298,449,-1,449,298,297,-1,449,297,454,-1,454,297,280,-1,454,280,455,-1,455,280,279,-1,455,279,432,-1,166,9,167,-1,167,9,8,-1,167,8,168,-1,168,8,7,-1,168,7,172,-1,172,7,6,-1,172,6,180,-1,180,6,23,-1,28,96,29,-1,29,96,179,-1,29,179,24,-1,24,179,178,-1,24,178,25,-1,25,178,177,-1,25,177,26,-1,26,177,176,-1,26,176,19,-1,19,176,175,-1,19,175,20,-1,20,175,183,-1,20,183,22,-1,22,183,182,-1,22,182,23,-1,23,182,181,-1,23,181,180,-1,1,169,3,-1,3,169,170,-1,3,170,4,-1,4,170,171,-1,4,171,5,-1,171,173,5,-1,5,173,189,-1,5,189,16,-1,16,189,188,-1,16,188,17,-1,17,188,187,-1,17,187,18,-1,18,187,185,-1,18,185,11,-1,11,185,184,-1,11,184,12,-1,12,184,192,-1,12,192,13,-1,13,192,191,-1,13,191,14,-1,14,191,190,-1,14,190,15,-1,15,190,193,-1,15,193,27,-1,27,193,97,-1,55,136,58,-1,58,136,135,-1,58,135,59,-1,59,135,134,-1,59,134,60,-1,60,134,133,-1,60,133,61,-1,61,133,132,-1,61,132,62,-1,62,132,131,-1,62,131,63,-1,131,130,63,-1,63,130,129,-1,63,129,64,-1,64,129,127,-1,64,127,65,-1,65,127,67,-1,67,127,126,-1,67,126,147,-1,136,55,137,-1,137,55,56,-1,51,122,124,-1,51,124,49,-1,124,146,49,-1,49,146,145,-1,49,145,48,-1,48,145,144,-1,48,144,46,-1,46,144,143,-1,46,143,47,-1,47,143,142,-1,47,142,52,-1,52,142,141,-1,52,141,53,-1,53,141,140,-1,137,56,138,-1,138,56,57,-1,138,57,140,-1,140,57,54,-1,140,54,53,-1,78,118,80,-1,80,118,103,-1,80,103,82,-1,82,103,102,-1,82,102,83,-1,83,102,122,-1,83,122,51,-1,89,111,90,-1,90,111,105,-1,90,105,75,-1,105,104,75,-1,75,104,120,-1,75,120,76,-1,76,120,119,-1,76,119,77,-1,77,119,118,-1,77,118,78,-1,92,112,94,-1,94,112,114,-1,94,114,95,-1,95,114,116,-1,95,116,84,-1,84,116,117,-1,84,117,85,-1,85,117,108,-1,85,108,87,-1,87,108,107,-1,87,107,88,-1,88,107,110,-1,88,110,89,-1,89,110,111,-1,38,159,39,-1,39,159,158,-1,39,158,40,-1,40,158,154,-1,40,154,41,-1,41,154,156,-1,41,156,42,-1,42,156,157,-1,42,157,32,-1,32,157,165,-1,32,165,33,-1,33,165,164,-1,33,164,34,-1,34,164,162,-1,148,44,149,-1,149,44,43,-1,149,43,151,-1,151,43,73,-1,151,73,152,-1,159,38,160,-1,160,38,37,-1,160,37,148,-1,148,37,45,-1,148,45,44,-1,152,73,153,-1,153,73,72,-1,153,72,98,-1,98,72,70,-1,98,70,147,-1,147,70,68,-1,147,68,67,-1,378,231,91,-1,91,231,113,-1,91,113,92,-1,92,113,112,-1,433,256,431,-1,431,256,245,-1,431,245,445,-1,445,245,243,-1,445,243,362,-1,362,243,241,-1,362,241,363,-1,363,241,260,-1,363,260,377,-1,377,260,269,-1,377,269,378,-1,378,269,231,-1,256,433,257,-1,257,433,435,-1,374,236,405,-1,405,236,237,-1,405,237,407,-1,407,237,200,-1,407,200,409,-1,409,200,199,-1,409,199,418,-1,418,199,203,-1,418,203,419,-1,419,203,258,-1,419,258,435,-1,435,258,257,-1,34,162,35,-1,35,162,161,-1,35,161,374,-1,374,161,236,-1,463,475,462,-1,462,475,474,-1,463,391,475,-1,475,391,390,-1,462,474,213,-1,213,474,214,-1,477,465,476,-1,476,465,464,-1,477,399,465,-1,465,399,398,-1,476,464,227,-1,227,464,228,-1,471,467,470,-1,470,467,466,-1,459,467,460,-1,460,467,471,-1,470,466,284,-1,284,466,285,-1,469,473,468,-1,468,473,472,-1,421,473,422,-1,422,473,469,-1,468,472,282,-1,282,472,283,-1,352,310,346,-1,346,310,309,-1,346,309,347,-1,347,309,303,-1,347,303,348,-1,348,303,302,-1,348,302,349,-1,349,302,308,-1,349,308,353,-1,353,308,327,-1,353,327,354,-1,354,327,326,-1,354,326,355,-1,355,326,325,-1,355,325,337,-1,337,325,318,-1,337,318,338,-1,338,318,317,-1,338,317,340,-1,340,317,316,-1,340,316,341,-1,341,316,321,-1,341,321,342,-1,342,321,320,-1,342,320,330,-1,330,320,319,-1,330,319,331,-1,331,319,305,-1,331,305,333,-1,333,305,306,-1,333,306,334,-1,334,306,307,-1,334,307,343,-1,343,307,324,-1,343,324,344,-1,344,324,323,-1,344,323,345,-1,345,323,322,-1,345,322,335,-1,335,322,315,-1,335,315,336,-1,336,315,314,-1,336,314,350,-1,350,314,313,-1,350,313,351,-1,351,313,312,-1,351,312,352,-1,352,312,310,-1,
        ]
    }
}
Shape{
    appearance Appearance {
        material  Material 	{
            diffuseColor 0.5019607843137255 0.5019607843137255 0.5019607843137255
            specularColor 0.25098039215686274 0.25098039215686274 0.25098039215686274
            ambientIntensity 0.502
            transparency 0.0
            shininess 0.5
        }
    }
    geometry IndexedFaceSet {
        ccw TRUE
        solid FALSE
        coord DEF co Coordinate {
            point [
                -1.4492 0.164 0.0039, -1.8765 0.164 0.0039, -1.8765 1.3841 0.0039, -0.7914 -3.0922 0.0039, -1.0795 -3.0922 0.0039, -1.0795 -1.9428 0.0039, -5.1865 -0.9731 0.0039, -5.2299 -0.717 0.0039, -4.9932 -0.717 0.0039, -3.0709 -0.4937 0.0039, -3.0709 -0.2345 0.0039, -1.8765 -0.2345 0.0039, -3.0709 0.164 0.0039, 4.1929 1.3764 0.0039, 3.9566 1.3764 0.0039, 3.9566 1.3841 0.0039, -0.6215 -0.2345 0.0039, 3.1299 -0.2345 0.0039, 3.1299 -0.717 0.0039, -3.8536 -2.0719 0.0039, -3.9357 -1.9428 0.0039, -3.3464 -1.9428 0.0039, -4.3038 -1.197 0.0039, -4.7186 -1.197 0.0039, -4.6634 -1.3608 0.0039, -4.9932 -1.5859 0.0039, -3.3464 -0.717 0.0039, -4.0301 -1.7944 0.0039, -4.1806 -1.502 0.0039, -4.8653 -1.8964 0.0039, -4.4814 -1.7854 0.0039, -4.8398 -1.9428 0.0039, -4.3946 -1.9428 0.0039, -4.6297 -2.3256 0.0039, -4.3235 -2.0719 0.0039, -4.3478 -2.7258 0.0039, -4.023 -3.0922 0.0039, -4.3038 1.1938 0.0039, -4.2269 1.3841 0.0039, -3.3464 1.3841 0.0039, -4.1806 1.4988 0.0039, -4.0301 1.7912 0.0039, -3.8536 2.0687 0.0039, -3.3464 3.089 0.0039, -4.023 3.089 0.0039, -4.3478 2.7226 0.0039, -4.6297 2.3224 0.0039, -4.3235 2.0687 0.0039, -4.8653 1.8932 0.0039, -4.4814 1.7822 0.0039, -4.9932 1.5827 0.0039, -4.652 1.3841 0.0039, -4.6634 1.3576 0.0039, -4.9932 1.3841 0.0039, -4.7186 1.1938 0.0039, -4.9932 0.4905 0.0039, -3.3464 0.4905 0.0039, -0.7914 -1.9428 0.0039, 3.7992 -1.9428 0.0039, 3.7992 -2.167 0.0039, 4.1929 -1.9428 0.0039, 4.1929 -2.5607 0.0039, 3.9566 -2.167 0.0039, 2.6611 -2.5607 0.0039, 2.447 -2.8353 0.0039, 2.2119 -3.0922 0.0039, 3.9566 -1.9428 0.0039, 3.9566 -1.3796 0.0039, 4.1929 -1.3796 0.0039, -0.6447 -0.2369 0.0039, -0.7914 -0.717 0.0039, 3.1299 -1.7536 0.0039, 3.4842 -1.7536 0.0039, 3.7992 -1.6158 0.0039, 3.4842 -1.6158 0.0039, 3.1299 0.164 0.0039, -0.2249 -0.2321 0.0039, -0.4265 -0.2321 0.0039, -0.5962 -0.2319 0.0039, -0.558 -0.2188 0.0039, -0.4809 0.0579 0.0039, -0.504 0.0947 0.0039, -0.2777 0.1616 0.0039, -0.5395 0.1289 0.0039, -0.5769 0.1504 0.0039, -0.5263 -0.1985 0.0039, -0.4968 -0.1674 0.0039, -0.4265 -0.1889 0.0039, -0.4758 -0.13 0.0039, -0.2777 -0.1889 0.0039, -0.6208 0.1631 0.0039, -0.631 0.164 0.0039, -0.2249 0.1616 0.0039, -0.464 -0.0883 0.0039, -0.4601 -0.0427 0.0039, -0.4658 0.0133 0.0039, -0.6604 0.1664 0.0039, -0.7914 1.3841 0.0039, 3.7992 2.1638 0.0039, 3.7992 1.6126 0.0039, 3.4842 1.6126 0.0039, 2.447 2.8321 0.0039, 2.6611 2.5575 0.0039, 3.1299 1.7504 0.0039, -0.7914 3.089 0.0039, 2.2119 3.089 0.0039, 3.4842 1.7504 0.0039, 3.1299 1.3841 0.0039, 3.9566 2.1638 0.0039, 4.1929 2.5575 0.0039, 4.1929 1.3841 0.0039, -5.0517 1.4405 0.0039, -5.0679 1.3841 0.0039, -5.1865 0.9699 0.0039, -5.2677 0.4905 0.0039, -4.9932 -0.4937 0.0039, -5.2677 -0.4937 0.0039, -5.0517 -1.4437 0.0039, -0.753 -0.2117 0.0039, -0.7914 -0.2345 0.0039, -0.753 -0.1685 0.0039, -0.7914 0.164 0.0039, -0.7111 -0.229 0.0039, -0.6713 -0.2345 0.0039, -0.6555 -0.2367 0.0039, -0.6952 0.164 0.0039, -0.7075 0.1631 0.0039, -0.753 0.1508 0.0039, -0.753 0.098 0.0039, -0.7087 0.1169 0.0039, -0.746 -0.1724 0.0039, -0.6608 0.1232 0.0039, -0.6221 0.1188 0.0039, -0.5926 0.1082 0.0039, -0.5653 0.0899 0.0039, -0.5416 0.0637 0.0039, -0.513 -0.0395 0.0039, -0.5169 -0.0821 0.0039, -0.5276 -0.116 0.0039, -0.6152 -0.1896 0.0039, -0.652 -0.1937 0.0039, -0.5866 -0.179 0.0039, -0.5624 -0.1628 0.0039, -0.5439 -0.1433 0.0039, -0.7042 -0.1879 0.0039, -0.5253 0.0333 0.0039, -0.5148 -0.0088 0.0039, -3.3464 -3.0922 0.0039, -1.8765 -3.0922 0.0039, -1.8765 -1.9428 0.0039, -1.4492 -3.0922 0.0039, -1.8765 -0.717 0.0039, -1.4492 -0.717 0.0039, -1.4492 -1.9428 0.0039, -1.9342 -1.5775 0.0039, -2.8392 -1.5775 0.0039, -2.8392 -1.8138 0.0039, -1.9342 -1.8138 0.0039, -3.3464 -0.4937 0.0039, -1.4492 -0.2345 0.0039, -1.0411 -0.1889 0.0039, -1.0411 -0.2321 0.0039, -1.0795 -0.2345 0.0039, -0.8298 -0.2321 0.0039, -1.0795 -0.717 0.0039, -0.8298 0.1616 0.0039, -1.0315 0.1616 0.0039, -1.0795 0.164 0.0039, -1.0315 0.1184 0.0039, -0.8827 -0.0545 0.0039, -0.8827 -0.1889 0.0039, -1.0219 -0.0545 0.0039, -1.0219 -0.0113 0.0039, -0.8827 -0.0113 0.0039, -0.8827 0.1184 0.0039, -1.1179 -0.2321 0.0039, -1.1179 0.1616 0.0039, -1.3602 -0.1905 0.0039, -1.3926 -0.1594 0.0039, -1.4151 -0.1242 0.0039, -1.229 0.1616 0.0039, -1.2859 0.1555 0.0039, -1.332 0.1393 0.0039, -1.3748 0.1106 0.0039, -1.319 -0.2144 0.0039, -1.2737 -0.2279 0.0039, -1.225 -0.2321 0.0039, -1.3752 0.1102 0.0039, -1.4031 0.0794 0.0039, -1.4214 0.0455 0.0039, -1.4319 0.0067 0.0039, -1.4348 -0.0303 0.0039, -1.4293 -0.083 0.0039, -1.6653 0.1616 0.0039, -1.7214 -0.1217 0.0039, -1.5588 -0.1217 0.0039, -1.7613 -0.2321 0.0039, -1.5212 -0.2321 0.0039, -1.8189 -0.2321 0.0039, -1.4636 -0.2321 0.0039, -1.6124 0.1616 0.0039, -3.0709 0.4905 0.0039, -1.0795 1.3841 0.0039, -1.4492 1.3841 0.0039, -1.0795 3.089 0.0039, -1.4492 3.089 0.0039, -1.8765 3.089 0.0039, -1.9342 1.8106 0.0039, -2.8392 1.8106 0.0039, -2.8392 1.5743 0.0039, -1.9342 1.5743 0.0039, -4.023 3.089 2.0906, -5.2677 -0.4937 0.0827, -5.1865 -0.9731 2.0906, -5.268 -0.4904 0.0827, -5.268 -0.4904 2.0906, -5.2953 -0.0016 2.0906, -5.2953 -0.0016 0.0827, -5.268 0.4872 2.0906, -5.1865 0.9699 2.0906, -5.2677 0.4905 0.0827, -5.268 0.4872 0.0827, -4.3478 2.7226 2.0906, -4.6297 2.3224 2.0906, -4.8653 1.8932 2.0906, -5.0517 1.4405 2.0906, -5.0517 -1.4437 2.0906, -4.8653 -1.8964 2.0906, -4.6297 -2.3256 2.0906, -4.3478 -2.7258 2.0906, -4.023 -3.0922 2.0906, 2.2119 -3.0922 1.8543, 2.447 -2.8353 1.8543, 2.6611 -2.5607 1.8543, 2.6611 2.5575 1.8543, 2.447 2.8321 1.8543, 2.2119 3.089 1.8543, 1.8503 2.8921 0.2008, 1.8503 2.8921 1.8543, 1.8503 3.089 0.2008, 1.8503 3.089 1.8543, 1.8503 -2.8953 1.8543, 1.8503 -2.8953 0.2008, 1.8503 -3.0922 1.8543, 1.8503 -3.0922 0.2008, -3.6615 3.089 2.0906, -3.6615 2.8921 2.0906, -4.7186 1.1938 2.0906, -4.636 1.1938 2.0906, -4.5162 1.5178 2.0906, -4.3235 2.0687 2.0906, -4.2516 2.183 2.0906, -3.9771 2.5547 2.0906, -4.3235 -2.0719 2.0906, -4.2516 -2.1862 2.0906, -3.9771 -2.5579 2.0906, -3.6615 -2.8953 2.0906, -3.6615 -3.0922 2.0906, -4.2311 2.0687 2.0906, -4.3654 1.8355 2.0906, -4.636 -1.197 2.0906, -4.7186 -1.197 2.0906, -4.5162 -1.521 2.0906, -4.3654 -1.8387 2.0906, -4.2311 -2.0719 2.0906, -4.7952 0.9147 2.0906, -4.8749 0.4596 2.0906, -4.9016 -0.0016 2.0906, -4.8749 -0.4628 2.0906, -4.7952 -0.9179 2.0906, -3.6615 -2.8953 0.2008, -3.6615 -3.0922 0.2008, -3.9771 -2.5579 0.2008, -3.6615 3.089 0.2008, -3.6615 2.8921 0.2008, -3.8536 -2.0719 0.2008, -4.3235 -2.0719 0.2008, -4.2516 -2.1862 0.2008, -4.1384 0.5496 0.2008, -4.7186 1.1938 0.2008, -4.7952 0.9147 0.2008, -3.9771 2.5547 0.2008, -3.8536 2.0687 0.2008, -4.2516 2.183 0.2008, -4.3235 2.0687 0.2008, 2.1627 -2.5617 0.2008, 1.2597 -1.8531 0.2008, -1.5722 -1.8531 0.2008, -2.9573 1.8499 0.2008, -1.816 1.8499 0.2008, 2.8454 -1.3796 0.2008, 1.2597 1.8499 0.2008, 2.6635 -1.7988 0.2008, 2.435 -2.1946 0.2008, 3.1299 -1.3796 0.2008, 3.1299 1.3764 0.2008, 2.8454 1.3764 0.2008, 2.6635 1.7956 0.2008, 2.435 2.1914 0.2008, 2.1627 2.5585 0.2008, -1.5722 1.8499 0.2008, -1.5722 1.6343 0.2008, -1.816 1.6343 0.2008, -3.1613 -1.3369 0.2008, -3.2071 -1.3315 0.2008, -4.8749 -0.4628 0.2008, -4.1384 -0.5528 0.2008, -4.9016 -0.0016 0.2008, -4.8749 0.4596 0.2008, -3.2889 1.2867 0.2008, -3.3203 1.2529 0.2008, -4.0301 1.7912 0.2008, -3.3429 1.2127 0.2008, -4.1806 1.4988 0.2008, -3.5694 0.6706 0.2008, -4.3038 1.1938 0.2008, -3.5921 0.6303 0.2008, -3.751 0.5496 0.2008, -3.7052 0.555 0.2008, -3.2504 1.3123 0.2008, -3.2071 1.3283 0.2008, -3.1613 1.3337 0.2008, -2.9573 1.3337 0.2008, -2.9573 -1.3369 0.2008, -2.9573 -1.8531 0.2008, -1.816 -1.8531 0.2008, -1.816 -1.6375 0.2008, -1.5722 -1.6375 0.2008, -3.5694 -0.6738 0.2008, -4.3038 -1.197 0.2008, -3.3429 -1.2159 0.2008, -4.1806 -1.502 0.2008, -3.3203 -1.2561 0.2008, -4.0301 -1.7944 0.2008, -3.2889 -1.2899 0.2008, -3.2504 -1.3155 0.2008, -3.5921 -0.6335 0.2008, -3.6235 -0.5997 0.2008, -3.6619 -0.5741 0.2008, -3.6619 0.5709 0.2008, -3.6235 0.5965 0.2008, -4.7952 -0.9179 0.2008, -4.7186 -1.197 0.2008, -3.751 -0.5528 0.2008, -3.7052 -0.5582 0.2008, 4.1929 -2.5607 1.8543, 4.1929 -1.3796 1.8543, 3.9566 -1.3796 1.8543, 3.7992 -2.167 1.8543, 3.7992 -1.6158 1.8543, 3.4842 -1.6158 1.8543, 3.4842 -1.7536 1.8543, 3.9566 -2.167 1.8543, 3.9566 -2.0488 1.8543, 2.1627 -2.5617 1.8543, 3.1299 -1.7536 1.8543, 3.1299 -1.3796 1.8543, 2.8454 -1.3796 1.8543, 3.1299 -1.5764 1.8543, 2.6635 -1.7988 1.8543, 2.435 -2.1946 1.8543, 3.1299 1.7504 1.8543, 2.1627 2.5585 1.8543, 2.435 2.1914 1.8543, 2.6635 1.7956 1.8543, 3.1299 1.5732 1.8543, 2.8454 1.3764 1.8543, 3.1299 1.3764 1.8543, 4.1929 2.5575 1.8543, 3.7992 2.1638 1.8543, 3.9566 1.3764 1.8543, 4.1929 1.3764 1.8543, 3.9566 2.0456 1.8543, 3.9566 2.1638 1.8543, 3.4842 1.6126 1.8543, 3.7992 1.6126 1.8543, 3.4842 1.7504 1.8543
            ]
        }
        coordIndex [
            0,1,2,-1,3,4,5,-1,6,7,8,-1,9,10,11,-1,11,10,12,-1,13,14,15,-1,16,17,18,-1,19,20,21,-1,22,23,8,-1,23,24,25,-1,21,20,26,-1,26,20,27,-1,26,27,28,-1,25,24,29,-1,29,24,30,-1,29,30,31,-1,31,30,32,-1,31,32,33,-1,33,32,34,-1,33,34,35,-1,35,34,19,-1,35,19,36,-1,37,38,39,-1,39,38,40,-1,40,41,39,-1,39,41,42,-1,39,42,43,-1,44,43,45,-1,45,43,42,-1,45,42,46,-1,46,42,47,-1,46,47,48,-1,48,47,49,-1,48,49,50,-1,51,52,53,-1,53,52,54,-1,53,54,55,-1,55,54,56,-1,57,58,3,-1,3,58,59,-1,60,61,62,-1,62,61,59,-1,59,61,63,-1,59,63,3,-1,3,63,64,-1,3,64,65,-1,62,66,60,-1,60,66,67,-1,60,67,68,-1,69,16,70,-1,70,16,18,-1,70,18,57,-1,57,18,71,-1,57,71,58,-1,58,71,72,-1,58,72,73,-1,73,72,74,-1,75,17,76,-1,76,17,16,-1,76,16,77,-1,77,16,78,-1,77,78,79,-1,80,81,82,-1,82,81,83,-1,82,83,84,-1,79,85,77,-1,77,85,86,-1,77,86,87,-1,87,86,88,-1,87,88,89,-1,84,90,82,-1,82,90,91,-1,82,91,92,-1,88,93,89,-1,89,93,94,-1,89,94,82,-1,82,94,95,-1,82,95,80,-1,91,96,97,-1,98,99,100,-1,101,102,103,-1,97,104,105,-1,103,102,106,-1,76,92,75,-1,75,92,91,-1,75,91,107,-1,107,91,97,-1,107,97,103,-1,103,97,105,-1,103,105,101,-1,100,106,98,-1,98,106,102,-1,98,102,108,-1,108,102,109,-1,108,109,15,-1,15,109,110,-1,15,110,13,-1,49,51,50,-1,50,51,53,-1,50,53,111,-1,111,53,112,-1,112,53,113,-1,113,53,55,-1,113,55,114,-1,28,22,26,-1,26,22,8,-1,26,8,115,-1,115,8,7,-1,115,7,116,-1,23,25,8,-1,8,25,117,-1,8,117,6,-1,118,119,120,-1,120,119,121,-1,118,122,119,-1,119,122,123,-1,119,123,70,-1,70,123,124,-1,70,124,69,-1,121,125,126,-1,126,127,121,-1,121,127,128,-1,121,128,120,-1,120,128,129,-1,120,129,130,-1,130,129,131,-1,130,131,132,-1,132,133,130,-1,130,133,134,-1,130,134,135,-1,136,137,130,-1,130,137,138,-1,139,140,141,-1,141,140,142,-1,138,143,130,-1,130,143,142,-1,130,142,144,-1,144,142,140,-1,135,145,130,-1,130,145,146,-1,130,146,136,-1,36,19,147,-1,147,19,21,-1,147,21,148,-1,148,21,149,-1,148,149,150,-1,151,152,153,-1,4,150,153,-1,153,150,149,-1,153,149,151,-1,151,149,154,-1,151,154,26,-1,26,154,155,-1,26,155,21,-1,21,155,156,-1,21,156,149,-1,149,156,157,-1,149,157,154,-1,115,158,26,-1,26,158,9,-1,26,9,151,-1,151,9,11,-1,151,11,152,-1,152,11,159,-1,160,161,162,-1,162,161,163,-1,3,5,57,-1,57,5,164,-1,57,164,70,-1,70,164,162,-1,70,162,119,-1,119,162,163,-1,119,163,121,-1,163,165,121,-1,121,165,166,-1,121,166,167,-1,167,166,168,-1,167,168,160,-1,169,170,171,-1,171,170,160,-1,171,160,172,-1,172,160,168,-1,172,168,173,-1,173,168,174,-1,160,162,167,-1,167,162,175,-1,167,175,176,-1,177,159,178,-1,178,159,179,-1,180,181,0,-1,0,181,182,-1,0,182,183,-1,177,184,159,-1,159,184,185,-1,159,185,186,-1,183,187,0,-1,0,187,188,-1,0,188,189,-1,4,153,5,-1,5,153,152,-1,5,152,164,-1,164,152,159,-1,164,159,162,-1,162,159,186,-1,162,186,175,-1,189,190,0,-1,0,190,191,-1,0,191,159,-1,159,191,192,-1,159,192,179,-1,1,0,193,-1,194,195,196,-1,196,195,197,-1,198,196,11,-1,11,196,197,-1,11,197,159,-1,159,197,199,-1,159,199,0,-1,0,199,200,-1,0,200,193,-1,54,37,56,-1,56,37,39,-1,56,39,201,-1,201,39,2,-1,201,2,12,-1,12,2,1,-1,12,1,11,-1,11,1,193,-1,11,193,198,-1,96,125,97,-1,97,125,121,-1,97,121,202,-1,202,121,167,-1,202,167,203,-1,104,97,204,-1,204,97,202,-1,204,202,205,-1,205,202,203,-1,205,203,206,-1,176,180,167,-1,167,180,0,-1,167,0,203,-1,203,0,2,-1,203,2,206,-1,206,2,207,-1,206,207,43,-1,43,207,208,-1,43,208,39,-1,39,208,209,-1,39,209,2,-1,2,209,210,-1,2,210,207,-1,211,44,45,-1,116,7,212,-1,212,7,213,-1,212,213,214,-1,213,215,214,-1,214,215,216,-1,214,216,217,-1,217,216,218,-1,219,220,218,-1,218,220,221,-1,218,221,217,-1,211,45,222,-1,222,45,46,-1,222,46,223,-1,223,46,48,-1,223,48,224,-1,224,48,50,-1,224,50,225,-1,114,220,113,-1,113,220,219,-1,113,219,112,-1,112,219,225,-1,112,225,111,-1,111,225,50,-1,7,6,213,-1,213,6,117,-1,213,117,226,-1,226,117,25,-1,226,25,227,-1,25,29,227,-1,227,29,31,-1,227,31,228,-1,31,33,228,-1,228,33,35,-1,228,35,229,-1,229,35,36,-1,229,36,230,-1,231,65,64,-1,231,64,232,-1,232,64,63,-1,232,63,233,-1,234,102,101,-1,234,101,235,-1,235,101,105,-1,235,105,236,-1,237,238,239,-1,239,238,240,-1,241,242,243,-1,243,242,244,-1,245,211,246,-1,246,211,222,-1,247,248,249,-1,224,250,223,-1,223,250,251,-1,223,251,222,-1,222,251,252,-1,222,252,246,-1,253,227,254,-1,254,227,228,-1,254,228,255,-1,255,228,229,-1,255,229,256,-1,256,229,230,-1,256,230,257,-1,258,250,259,-1,259,250,224,-1,259,224,249,-1,260,261,262,-1,262,261,227,-1,262,227,263,-1,263,227,253,-1,263,253,264,-1,249,224,247,-1,247,224,225,-1,247,225,265,-1,265,225,219,-1,265,219,266,-1,266,219,218,-1,266,218,267,-1,267,218,216,-1,267,216,268,-1,268,216,215,-1,268,215,269,-1,269,215,213,-1,269,213,261,-1,261,213,226,-1,261,226,227,-1,270,271,244,-1,270,244,272,-1,239,273,274,-1,275,276,277,-1,278,279,280,-1,274,281,282,-1,282,281,283,-1,282,283,284,-1,285,286,242,-1,242,286,287,-1,242,287,244,-1,244,287,275,-1,244,275,272,-1,272,275,277,-1,274,282,239,-1,239,282,288,-1,239,288,289,-1,290,291,292,-1,292,291,286,-1,292,286,293,-1,293,286,285,-1,294,295,290,-1,290,295,296,-1,290,296,291,-1,291,296,297,-1,297,298,291,-1,291,298,299,-1,291,299,300,-1,300,299,237,-1,237,239,300,-1,300,239,289,-1,300,289,301,-1,301,289,302,-1,303,304,275,-1,305,306,307,-1,307,306,278,-1,307,278,308,-1,308,278,280,-1,309,282,310,-1,310,282,311,-1,310,311,312,-1,312,311,313,-1,312,313,314,-1,314,313,315,-1,314,315,316,-1,279,278,315,-1,315,278,317,-1,315,317,318,-1,309,319,282,-1,282,319,320,-1,282,320,288,-1,288,320,321,-1,288,321,322,-1,323,303,324,-1,324,303,275,-1,324,275,325,-1,325,275,287,-1,325,287,326,-1,326,287,327,-1,328,329,330,-1,330,329,331,-1,330,331,332,-1,332,331,333,-1,332,333,334,-1,334,333,275,-1,334,275,335,-1,335,275,304,-1,328,336,329,-1,329,336,337,-1,329,337,338,-1,318,339,315,-1,315,339,340,-1,315,340,316,-1,305,341,306,-1,306,341,342,-1,306,342,343,-1,343,342,329,-1,343,329,344,-1,344,329,338,-1,246,274,245,-1,245,274,273,-1,270,256,271,-1,271,256,257,-1,345,346,347,-1,348,349,350,-1,350,351,348,-1,348,351,233,-1,348,233,352,-1,352,233,345,-1,352,345,353,-1,353,345,347,-1,241,243,354,-1,354,243,355,-1,231,232,243,-1,243,232,233,-1,243,233,355,-1,355,233,351,-1,356,357,358,-1,358,357,359,-1,358,359,355,-1,355,359,360,-1,355,360,354,-1,361,240,362,-1,362,240,238,-1,362,363,361,-1,361,363,364,-1,361,364,365,-1,365,364,366,-1,365,366,367,-1,368,234,369,-1,370,371,372,-1,372,371,368,-1,372,368,373,-1,373,368,369,-1,374,375,376,-1,376,375,369,-1,376,369,361,-1,361,369,234,-1,361,234,240,-1,240,234,235,-1,240,235,236,-1,
        ]
    }
}
Shape{
    appearance Appearance {
        material  Material 	{
            diffuseColor 1.0 1.0 0.0
            specularColor 0.5019607843137255 0.5019607843137255 0.0
            ambientIntensity 0.886
            transparency 0.0
            shininess 0.5
        }
    }
    geometry IndexedFaceSet {
        ccw TRUE
        solid FALSE
        coord DEF co Coordinate {
            point [
                2.1456 -1.3796 1.9724, 2.1456 -1.0628 1.9724, 2.1456 -1.3796 1.8937, 2.1456 -1.0628 1.8937, 3.8779 0.589 0.7913, 3.9566 0.589 0.7913, 3.8779 0.5496 0.7913, 3.9566 0.5496 0.7913, 3.9566 1.3764 0.6142, 3.9566 1.2976 0.6142, 3.9425 1.2976 0.5072, 3.9566 1.5732 0.6142, 3.1439 1.2976 0.5072, 3.1299 1.2976 0.6142, 3.1299 1.3764 0.6142, 3.9425 1.5732 0.5072, 3.9012 1.2976 0.4075, 3.9012 1.5732 0.4075, 3.8356 1.2976 0.3219, 3.8356 1.5732 0.3219, 3.7499 1.2976 0.2562, 3.7499 1.5732 0.2562, 3.6502 1.2976 0.2149, 3.6502 1.5732 0.2149, 3.5432 1.2976 0.2008, 3.5432 1.5732 0.2008, 3.4363 1.2976 0.2149, 3.4363 1.5732 0.2149, 3.3366 1.2976 0.2562, 3.3366 1.5732 0.2562, 3.2509 1.2976 0.3219, 3.2509 1.5732 0.3219, 3.1852 1.2976 0.4075, 3.1852 1.5732 0.4075, 3.1439 1.5732 0.5072, 3.1299 1.5732 0.6142, 3.9566 -0.5922 0.6142, 3.9566 -0.9859 0.6142, 3.9425 -0.9859 0.5072, 3.9425 -0.5922 0.5072, 3.9012 -0.9859 0.4075, 3.9012 -0.5922 0.4075, 3.8356 -0.9859 0.3219, 3.8356 -0.5922 0.3219, 3.7499 -0.9859 0.2562, 3.7499 -0.5922 0.2562, 3.6502 -0.9859 0.2149, 3.6502 -0.5922 0.2149, 3.5432 -0.9859 0.2008, 3.5432 -0.5922 0.2008, 3.4363 -0.9859 0.2149, 3.4363 -0.5922 0.2149, 3.3366 -0.9859 0.2562, 3.3366 -0.5922 0.2562, 3.2509 -0.9859 0.3219, 3.2509 -0.5922 0.3219, 3.1852 -0.9859 0.4075, 3.1852 -0.5922 0.4075, 3.1439 -0.9859 0.5072, 3.1439 -0.5922 0.5072, 3.1299 -0.9859 0.6142, 3.1299 -0.5922 0.6142, 3.9566 0.9827 0.6142, 3.9566 0.589 0.6142, 3.9425 0.589 0.5072, 3.9425 0.9827 0.5072, 3.9012 0.589 0.4075, 3.9012 0.9827 0.4075, 3.8356 0.589 0.3219, 3.8356 0.9827 0.3219, 3.7499 0.589 0.2562, 3.7499 0.9827 0.2562, 3.6502 0.589 0.2149, 3.6502 0.9827 0.2149, 3.5432 0.589 0.2008, 3.5432 0.9827 0.2008, 3.4363 0.589 0.2149, 3.4363 0.9827 0.2149, 3.3366 0.589 0.2562, 3.3366 0.9827 0.2562, 3.2509 0.589 0.3219, 3.2509 0.9827 0.3219, 3.1852 0.589 0.4075, 3.1852 0.9827 0.4075, 3.1439 0.589 0.5072, 3.1439 0.9827 0.5072, 3.1299 0.589 0.6142, 3.1299 0.9827 0.6142, 3.2086 1.5732 0.6142, 3.2086 1.2976 0.6142, 3.22 1.5732 0.5276, 3.22 1.2976 0.5276, 3.2534 1.5732 0.4469, 3.2534 1.2976 0.4469, 3.3066 1.5732 0.3775, 3.3066 1.2976 0.3775, 3.3759 1.5732 0.3244, 3.3759 1.2976 0.3244, 3.4566 1.5732 0.2909, 3.4566 1.2976 0.2909, 3.5432 1.5732 0.2795, 3.5432 1.2976 0.2795, 3.6299 1.5732 0.2909, 3.6299 1.2976 0.2909, 3.7106 1.5732 0.3244, 3.7106 1.2976 0.3244, 3.7799 1.5732 0.3775, 3.7799 1.2976 0.3775, 3.8331 1.5732 0.4469, 3.8331 1.2976 0.4469, 3.8665 1.5732 0.5276, 3.8665 1.2976 0.5276, 3.8779 1.5732 0.6142, 3.8779 1.2976 0.6142, 3.2086 -0.5922 0.6142, 3.2086 -0.9859 0.6142, 3.22 -0.5922 0.5276, 3.22 -0.9859 0.5276, 3.2534 -0.5922 0.4469, 3.2534 -0.9859 0.4469, 3.3066 -0.5922 0.3775, 3.3066 -0.9859 0.3775, 3.3759 -0.5922 0.3244, 3.3759 -0.9859 0.3244, 3.4566 -0.5922 0.2909, 3.4566 -0.9859 0.2909, 3.5432 -0.5922 0.2795, 3.5432 -0.9859 0.2795, 3.6299 -0.5922 0.2909, 3.6299 -0.9859 0.2909, 3.7106 -0.5922 0.3244, 3.7106 -0.9859 0.3244, 3.7799 -0.5922 0.3775, 3.7799 -0.9859 0.3775, 3.8331 -0.5922 0.4469, 3.8331 -0.9859 0.4469, 3.8665 -0.5922 0.5276, 3.8665 -0.9859 0.5276, 3.8779 -0.5922 0.6142, 3.8779 -0.9859 0.6142, 3.2086 0.9827 0.6142, 3.2086 0.589 0.6142, 3.22 0.9827 0.5276, 3.22 0.589 0.5276, 3.2534 0.9827 0.4469, 3.2534 0.589 0.4469, 3.3066 0.9827 0.3775, 3.3066 0.589 0.3775, 3.3759 0.9827 0.3244, 3.3759 0.589 0.3244, 3.4566 0.9827 0.2909, 3.4566 0.589 0.2909, 3.5432 0.9827 0.2795, 3.5432 0.589 0.2795, 3.6299 0.9827 0.2909, 3.6299 0.589 0.2909, 3.7106 0.9827 0.3244, 3.7106 0.589 0.3244, 3.7799 0.9827 0.3775, 3.7799 0.589 0.3775, 3.8331 0.9827 0.4469, 3.8331 0.589 0.4469, 3.8665 0.9827 0.5276, 3.8665 0.589 0.5276, 3.8779 0.9827 0.6142, 3.8779 0.589 0.6142
            ]
        }
        coordIndex [
            0,1,2,-1,2,1,3,-1,4,5,6,-1,6,5,7,-1,8,9,10,-1,8,10,11,-1,12,13,14,-1,11,10,15,-1,15,10,16,-1,15,16,17,-1,17,16,18,-1,17,18,19,-1,19,18,20,-1,19,20,21,-1,21,20,22,-1,21,22,23,-1,23,22,24,-1,23,24,25,-1,25,24,26,-1,25,26,27,-1,27,26,28,-1,27,28,29,-1,29,28,30,-1,29,30,31,-1,31,30,32,-1,31,32,33,-1,33,32,12,-1,33,12,34,-1,34,12,14,-1,34,14,35,-1,36,37,38,-1,36,38,39,-1,39,38,40,-1,39,40,41,-1,41,40,42,-1,41,42,43,-1,43,42,44,-1,43,44,45,-1,45,44,46,-1,45,46,47,-1,47,46,48,-1,47,48,49,-1,49,48,50,-1,49,50,51,-1,51,50,52,-1,51,52,53,-1,53,52,54,-1,53,54,55,-1,55,54,56,-1,55,56,57,-1,57,56,58,-1,57,58,59,-1,59,58,60,-1,59,60,61,-1,62,63,64,-1,62,64,65,-1,65,64,66,-1,65,66,67,-1,67,66,68,-1,67,68,69,-1,69,68,70,-1,69,70,71,-1,71,70,72,-1,71,72,73,-1,73,72,74,-1,73,74,75,-1,75,74,76,-1,75,76,77,-1,77,76,78,-1,77,78,79,-1,79,78,80,-1,79,80,81,-1,81,80,82,-1,81,82,83,-1,83,82,84,-1,83,84,85,-1,85,84,86,-1,85,86,87,-1,88,89,90,-1,90,89,91,-1,90,91,92,-1,92,91,93,-1,92,93,94,-1,94,93,95,-1,94,95,96,-1,96,95,97,-1,96,97,98,-1,98,97,99,-1,98,99,100,-1,100,99,101,-1,100,101,102,-1,102,101,103,-1,102,103,104,-1,104,103,105,-1,104,105,106,-1,106,105,107,-1,106,107,108,-1,108,107,109,-1,108,109,110,-1,110,109,111,-1,110,111,112,-1,112,111,113,-1,114,115,116,-1,116,115,117,-1,116,117,118,-1,118,117,119,-1,118,119,120,-1,120,119,121,-1,120,121,122,-1,122,121,123,-1,122,123,124,-1,124,123,125,-1,124,125,126,-1,126,125,127,-1,126,127,128,-1,128,127,129,-1,128,129,130,-1,130,129,131,-1,130,131,132,-1,132,131,133,-1,132,133,134,-1,134,133,135,-1,134,135,136,-1,136,135,137,-1,136,137,138,-1,138,137,139,-1,140,141,142,-1,142,141,143,-1,142,143,144,-1,144,143,145,-1,144,145,146,-1,146,145,147,-1,146,147,148,-1,148,147,149,-1,148,149,150,-1,150,149,151,-1,150,151,152,-1,152,151,153,-1,152,153,154,-1,154,153,155,-1,154,155,156,-1,156,155,157,-1,156,157,158,-1,158,157,159,-1,158,159,160,-1,160,159,161,-1,160,161,162,-1,162,161,163,-1,162,163,164,-1,164,163,165,-1,
        ]
    }
}
Shape{
    appearance Appearance {
        material  Material 	{
            diffuseColor 0.5019607843137255 0.5019607843137255 0.5019607843137255
            specularColor 0.25098039215686274 0.25098039215686274 0.25098039215686274
            ambientIntensity 0.502
            transparency 0.0
            shininess 0.5
        }
    }
    geometry IndexedFaceSet {
        ccw TRUE
        solid FALSE
        coord DEF co Coordinate {
            point [
                3.9566 2.0456 1.8543, 3.9566 2.1638 1.8543, 3.9566 2.0456 1.1063, 3.9566 2.1638 0.0039, 3.9566 1.5732 1.1063, 3.9566 1.5732 0.6142, 3.9566 1.3764 0.6142, 3.9566 1.3841 0.0039, 3.9566 1.3764 0.0039, 3.9566 -2.167 0.0039, 3.9566 -2.167 1.8543, 3.9566 -2.0488 1.1063, 3.9566 -2.0488 1.8543, 3.9566 -1.5764 0.6142, 3.9566 -1.3796 0.6142, 3.9566 -1.3796 0.0039, 3.9566 -1.5764 1.1063, 3.9566 -1.9428 0.0039, 4.1929 1.3764 1.8543, 4.1929 1.3764 0.0039, 4.1929 2.5575 1.8543, 4.1929 1.3841 0.0039, 4.1929 2.5575 0.0039, 1.8503 -2.8953 0.2008, 1.8503 -2.8953 1.8543, 2.1627 -2.5617 0.2008, 2.1627 -2.5617 1.8543, 2.435 -2.1946 0.2008, 2.435 -2.1946 1.8543, 2.6635 -1.7988 0.2008, 2.6635 -1.7988 1.8543, 2.8454 -1.3796 0.2008, 2.8454 -1.3796 1.8543, 2.8454 1.3764 0.2008, 2.8454 1.3764 1.8543, 2.6635 1.7956 0.2008, 2.6635 1.7956 1.8543, 2.435 2.1914 0.2008, 2.435 2.1914 1.8543, 2.1627 2.5585 0.2008, 2.1627 2.5585 1.8543, 1.8503 2.8921 0.2008, 1.8503 2.8921 1.8543, 4.1929 -1.3796 0.0039, 4.1929 -1.3796 1.8543, 4.1929 -1.9428 0.0039, 4.1929 -2.5607 1.8543, 4.1929 -2.5607 0.0039, 2.6611 2.5575 0.0039, 2.6611 2.5575 1.8543, 2.6611 -2.5607 0.0039, 2.6611 -2.5607 1.8543, 3.1299 1.3764 1.8543, 3.1299 1.3764 0.6142, 3.1299 1.3764 0.2008, 3.1299 1.7504 0.0039, 3.4842 1.7504 0.0039, 3.1299 1.7504 1.8543, 3.4842 1.7504 1.8543, 3.4842 1.6126 0.0039, 3.4842 1.6126 1.8543, 3.7992 1.6126 0.0039, 3.7992 1.6126 1.8543, 3.7992 2.1638 0.0039, 3.7992 2.1638 1.8543, 3.9566 1.3764 1.8543, 3.9566 -1.3796 1.8543, 3.7992 -2.167 0.0039, 3.7992 -2.167 1.8543, 3.7992 -1.6158 0.0039, 3.7992 -1.6158 1.8543, 3.7992 -1.9428 0.0039, 3.4842 -1.6158 0.0039, 3.4842 -1.6158 1.8543, 3.4842 -1.7536 0.0039, 3.4842 -1.7536 1.8543, 3.1299 -1.7536 0.0039, 3.1299 -1.7536 1.8543, 3.1299 1.5732 1.8543, 3.1299 1.5732 0.6142, 3.1299 -1.3796 0.2008, 3.1299 -0.717 0.0039, 3.1299 -1.5764 1.8543, 3.1299 -1.5764 0.6142, 3.1299 -1.3796 0.6142, 3.1299 -0.2345 0.0039, 3.1299 0.164 0.0039, 3.1299 1.3841 0.0039, 3.1299 -1.3796 1.8543, -4.3235 -2.0719 1.8543, -4.3235 -2.0719 2.0906, -4.2516 -2.1862 2.0906, -4.7186 1.1938 0.2008, -4.7186 1.1938 0.0039, -4.6634 1.3576 0.0039, -4.7952 -0.9179 0.2008, -4.7186 -1.197 1.8543, -4.7186 -1.197 0.2008, -4.6634 -1.3608 1.8543, -4.7186 1.1938 1.8543, -4.7186 1.1938 2.0906, -4.7952 0.9147 2.0906, -4.7952 0.9147 0.2008, -4.6634 1.3576 1.8543, -4.652 1.3841 0.0039, -4.4814 1.7822 1.8543, -4.4814 1.7822 0.0039, -4.3235 2.0687 0.0039, -4.3235 2.0687 0.2008, -4.3235 2.0687 1.8543, -4.2516 2.183 0.2008, -3.6615 2.8921 0.2008, -3.6615 2.8921 2.0906, -3.9771 2.5547 0.2008, -3.9771 2.5547 2.0906, -4.2516 2.183 2.0906, -4.3235 2.0687 2.0906, -4.8749 0.4596 0.2008, -4.8749 0.4596 2.0906, -4.9016 -0.0016 0.2008, -4.9016 -0.0016 2.0906, -4.8749 -0.4628 0.2008, -4.8749 -0.4628 2.0906, -4.7952 -0.9179 2.0906, -4.7186 -1.197 2.0906, -4.2516 -2.1862 0.2008, -4.3235 -2.0719 0.2008, -4.4814 -1.7854 1.8543, -3.9771 -2.5579 0.2008, -3.9771 -2.5579 2.0906, -3.6615 -2.8953 0.2008, -3.6615 -2.8953 2.0906, -4.7186 -1.197 0.0039, -4.6634 -1.3608 0.0039, -4.4814 -1.7854 0.0039, -4.3946 -1.9428 0.0039, -4.3235 -2.0719 0.0039, -4.1384 -0.5528 0.122, -4.1384 0.5496 0.122, -4.1384 -0.5528 0.2008, -4.1384 0.5496 0.2008, -3.751 0.5496 0.122, -3.751 0.5496 0.2008, -3.5694 0.6706 0.122, -3.5694 0.6706 0.2008, -3.5921 0.6303 0.2008, -3.5921 0.6303 0.122, -3.6235 0.5965 0.2008, -3.6235 0.5965 0.122, -3.6619 0.5709 0.2008, -3.6619 0.5709 0.122, -3.7052 0.555 0.2008, -3.7052 0.555 0.122, -3.3429 1.2127 0.122, -3.3429 1.2127 0.2008, -3.1613 1.3337 0.122, -3.1613 1.3337 0.2008, -3.2071 1.3283 0.122, -3.2071 1.3283 0.2008, -3.2504 1.3123 0.122, -3.2504 1.3123 0.2008, -3.2889 1.2867 0.122, -3.2889 1.2867 0.2008, -3.3203 1.2529 0.122, -3.3203 1.2529 0.2008, -2.9573 1.3337 0.122, -2.9573 1.3337 0.2008, -2.9573 1.8499 0.122, -2.9573 1.8499 0.2008, -1.816 1.8499 0.122, -1.816 1.8499 0.2008, -1.816 1.6343 0.122, -1.816 1.6343 0.2008, -1.5722 1.6343 0.122, -1.5722 1.6343 0.2008, -1.5722 1.8499 0.122, -1.5722 1.8499 0.2008, 1.2597 1.8499 0.122, 1.2597 1.8499 0.2008, 1.2597 -1.8531 0.122, 1.2597 -1.8531 0.2008, -1.5722 -1.8531 0.122, -1.5722 -1.8531 0.2008, -1.5722 -1.6375 0.122, -1.5722 -1.6375 0.2008, -1.816 -1.6375 0.122, -1.816 -1.6375 0.2008, -1.816 -1.8531 0.122, -1.816 -1.8531 0.2008, -2.9573 -1.8531 0.122, -2.9573 -1.8531 0.2008, -2.9573 -1.3369 0.122, -2.9573 -1.3369 0.2008, -3.1613 -1.3369 0.122, -3.1613 -1.3369 0.2008, -3.3429 -1.2159 0.122, -3.3429 -1.2159 0.2008, -3.3203 -1.2561 0.122, -3.3203 -1.2561 0.2008, -3.2889 -1.2899 0.122, -3.2889 -1.2899 0.2008, -3.2504 -1.3155 0.122, -3.2504 -1.3155 0.2008, -3.2071 -1.3315 0.122, -3.2071 -1.3315 0.2008, -3.5694 -0.6738 0.122, -3.5694 -0.6738 0.2008, -3.751 -0.5528 0.122, -3.751 -0.5528 0.2008, -3.7052 -0.5582 0.2008, -3.7052 -0.5582 0.122, -3.6619 -0.5741 0.2008, -3.6619 -0.5741 0.122, -3.6235 -0.5997 0.2008, -3.6235 -0.5997 0.122, -3.5921 -0.6335 0.2008, -3.5921 -0.6335 0.122, -2.7998 -1.7744 0.122, -1.9735 -1.7744 0.122, -2.7998 -1.6169 0.122, -1.9735 -1.6169 0.122, -1.9735 1.6137 0.122, -1.9735 1.7712 0.122, -2.7998 1.7712 0.122, -2.7998 1.6137 0.122, -5.2677 -0.4937 0.0827, -5.268 -0.4904 0.0827, -3.0709 -0.4937 0.0827, -5.2953 -0.0016 0.0827, -3.0709 0.4905 0.0827, -5.268 0.4872 0.0827, -5.2677 0.4905 0.0827, -5.2677 0.4905 0.0039, -4.9932 0.4905 0.0039, -3.3464 0.4905 0.0039, -3.0709 0.4905 0.0039, -4.9932 -0.4937 0.0039, -5.2677 -0.4937 0.0039, -3.3464 -0.4937 0.0039, -3.0709 -0.4937 0.0039, -3.0709 -0.2345 0.0039, -3.0709 0.164 0.0039
            ]
        }
        coordIndex [
            0,1,2,-1,2,1,3,-1,4,2,5,-1,5,2,3,-1,5,3,6,-1,6,3,7,-1,6,7,8,-1,9,10,11,-1,11,10,12,-1,13,14,15,-1,11,16,9,-1,9,16,13,-1,9,13,17,-1,17,13,15,-1,18,19,20,-1,20,19,21,-1,20,21,22,-1,23,24,25,-1,25,24,26,-1,25,26,27,-1,27,26,28,-1,27,28,29,-1,29,28,30,-1,29,30,31,-1,31,30,32,-1,33,34,35,-1,35,34,36,-1,35,36,37,-1,37,36,38,-1,37,38,39,-1,39,38,40,-1,39,40,41,-1,41,40,42,-1,43,44,45,-1,45,44,46,-1,45,46,47,-1,22,48,20,-1,20,48,49,-1,50,47,51,-1,51,47,46,-1,52,34,53,-1,53,34,33,-1,53,33,54,-1,55,56,57,-1,57,56,58,-1,56,59,58,-1,58,59,60,-1,59,61,60,-1,60,61,62,-1,61,63,62,-1,62,63,64,-1,63,3,64,-1,64,3,1,-1,18,65,19,-1,19,65,6,-1,19,6,8,-1,66,44,14,-1,14,44,43,-1,14,43,15,-1,9,67,10,-1,10,67,68,-1,69,70,71,-1,71,70,68,-1,71,68,67,-1,69,72,70,-1,70,72,73,-1,72,74,73,-1,73,74,75,-1,74,76,75,-1,75,76,77,-1,57,78,79,-1,57,79,55,-1,55,79,53,-1,55,53,54,-1,80,76,81,-1,82,77,83,-1,83,77,76,-1,83,76,84,-1,84,76,80,-1,81,85,80,-1,80,85,86,-1,80,86,54,-1,54,86,87,-1,54,87,55,-1,32,88,31,-1,31,88,84,-1,31,84,80,-1,89,90,91,-1,92,93,94,-1,95,96,97,-1,97,96,98,-1,99,100,101,-1,102,92,103,-1,92,94,103,-1,103,94,104,-1,103,104,105,-1,106,107,108,-1,104,106,105,-1,105,106,108,-1,105,108,109,-1,109,108,110,-1,111,112,113,-1,113,112,114,-1,113,114,110,-1,110,114,115,-1,110,115,109,-1,109,115,116,-1,103,99,102,-1,102,99,101,-1,102,101,117,-1,117,101,118,-1,117,118,119,-1,119,118,120,-1,119,120,121,-1,121,120,122,-1,121,122,95,-1,95,122,123,-1,95,123,96,-1,96,123,124,-1,125,126,127,-1,127,89,125,-1,125,89,91,-1,125,91,128,-1,128,91,129,-1,128,129,130,-1,130,129,131,-1,132,97,133,-1,133,97,98,-1,133,98,134,-1,134,98,127,-1,134,127,135,-1,135,127,126,-1,135,126,136,-1,137,138,139,-1,139,138,140,-1,138,141,140,-1,140,141,142,-1,143,144,145,-1,143,145,146,-1,146,145,147,-1,146,147,148,-1,148,147,149,-1,148,149,150,-1,150,149,151,-1,150,151,152,-1,152,151,142,-1,152,142,141,-1,143,153,144,-1,144,153,154,-1,155,156,157,-1,157,156,158,-1,157,158,159,-1,159,158,160,-1,159,160,161,-1,161,160,162,-1,161,162,163,-1,163,162,164,-1,163,164,153,-1,153,164,154,-1,155,165,156,-1,156,165,166,-1,165,167,166,-1,166,167,168,-1,167,169,168,-1,168,169,170,-1,169,171,170,-1,170,171,172,-1,171,173,172,-1,172,173,174,-1,173,175,174,-1,174,175,176,-1,175,177,176,-1,176,177,178,-1,177,179,178,-1,178,179,180,-1,179,181,180,-1,180,181,182,-1,181,183,182,-1,182,183,184,-1,183,185,184,-1,184,185,186,-1,185,187,186,-1,186,187,188,-1,187,189,188,-1,188,189,190,-1,189,191,190,-1,190,191,192,-1,191,193,192,-1,192,193,194,-1,195,196,197,-1,197,196,198,-1,197,198,199,-1,199,198,200,-1,199,200,201,-1,201,200,202,-1,201,202,203,-1,203,202,204,-1,203,204,193,-1,193,204,194,-1,195,205,196,-1,196,205,206,-1,207,208,209,-1,207,209,210,-1,210,209,211,-1,210,211,212,-1,212,211,213,-1,212,213,214,-1,214,213,215,-1,214,215,216,-1,216,215,206,-1,216,206,205,-1,207,137,208,-1,208,137,139,-1,217,191,189,-1,177,175,173,-1,217,189,218,-1,181,179,183,-1,183,179,177,-1,183,177,185,-1,141,138,137,-1,173,219,177,-1,177,219,220,-1,177,220,185,-1,185,220,218,-1,185,218,187,-1,187,218,189,-1,210,171,207,-1,207,171,137,-1,146,148,137,-1,210,212,171,-1,171,212,214,-1,171,214,173,-1,173,214,216,-1,148,150,137,-1,137,150,152,-1,137,152,141,-1,217,219,191,-1,191,219,173,-1,191,173,193,-1,193,173,203,-1,153,143,155,-1,155,143,165,-1,143,146,165,-1,165,146,137,-1,165,137,221,-1,221,137,171,-1,221,171,222,-1,222,171,169,-1,222,169,223,-1,223,169,167,-1,223,167,224,-1,224,167,165,-1,224,165,221,-1,216,205,173,-1,173,205,195,-1,173,195,197,-1,159,161,163,-1,197,199,173,-1,173,199,201,-1,173,201,203,-1,153,155,163,-1,163,155,157,-1,163,157,159,-1,225,226,227,-1,227,226,228,-1,227,228,229,-1,229,228,230,-1,229,230,231,-1,232,233,231,-1,231,233,234,-1,231,234,229,-1,229,234,235,-1,236,237,225,-1,236,225,238,-1,238,225,227,-1,238,227,239,-1,240,239,227,-1,240,227,241,-1,241,227,229,-1,241,229,235,-1,
        ]
    }
}
Shape{
    appearance Appearance {
        material  Material 	{
            diffuseColor 1.0 1.0 0.0
            specularColor 0.5019607843137255 0.5019607843137255 0.0
            ambientIntensity 0.886
            transparency 0.0
            shininess 0.5
        }
    }
    geometry IndexedFaceSet {
        ccw TRUE
        solid FALSE
        coord DEF co Coordinate {
            point [
                3.9566 2.0456 1.8543, 3.9566 2.0456 1.8937, 3.9566 1.3764 1.8543, 3.9566 -2.0488 1.8937, 3.9566 -2.0488 1.8543, 3.9566 -1.3796 1.8543, 3.9566 -1.3796 0.6142, 3.9566 -1.3008 0.7913, 3.9566 -1.3008 0.6142, 3.9566 -0.9859 0.7913, 3.9566 -0.5528 0.7913, 3.9566 -0.5528 0.0787, 3.9566 0.5496 0.0787, 3.9566 0.5496 0.7913, 3.9566 0.589 0.7913, 3.9566 -0.5922 0.7913, 3.9566 -0.5922 0.6142, 3.9566 -0.9859 0.6142, 3.9566 1.2976 0.6142, 3.9566 1.3764 0.6142, 3.9566 1.2976 0.7913, 3.9566 0.9827 0.7913, 3.9566 0.9827 0.6142, 3.9566 0.589 0.6142, 3.1299 -1.3008 0.7913, 3.1299 -1.3008 0.6142, 3.1299 -1.3796 0.6142, 3.1299 1.3764 1.8543, 3.1299 1.3764 0.6142, 3.1299 1.2976 0.7913, 3.1299 1.2976 0.6142, 3.1299 1.5732 1.8937, 3.1299 1.5732 1.8543, 3.1299 1.2582 1.8937, 3.1299 1.2582 1.3819, 3.1299 0.9827 0.6142, 3.1299 0.589 0.6142, 3.1299 0.9827 0.7913, 3.1299 0.589 0.7913, 3.1299 -1.2614 1.3819, 3.1299 -0.5922 0.7913, 3.1299 -1.5764 1.8543, 3.1299 -1.5764 1.8937, 3.1299 -1.3796 1.8543, 3.1299 -1.2614 1.8937, 3.1299 -0.9859 0.7913, 3.1299 -0.9859 0.6142, 3.1299 -0.5922 0.6142, 3.8779 1.5732 0.6142, 3.8779 1.2976 0.6142, 3.8779 1.5732 1.1063, 3.8779 1.2976 0.7913, 3.8779 2.0456 1.8937, 3.8779 2.0456 1.1063, 3.8779 0.9827 0.7913, 3.8779 -2.0488 1.8937, 3.8779 0.5496 0.7913, 3.8779 0.5496 0.0787, 3.8779 -0.5528 0.0787, 3.8779 -0.5528 0.7913, 3.8779 0.589 0.7913, 3.8779 0.589 0.6142, 3.8779 0.9827 0.6142, 3.8779 -0.5922 0.6142, 3.8779 -0.9859 0.6142, 3.8779 -0.5922 0.7913, 3.8779 -0.9859 0.7913, 3.8779 -1.5764 1.1063, 3.8779 -2.0488 1.1063, 3.8779 -1.3008 0.7913, 3.8779 -1.5764 0.6142, 3.8779 -1.3008 0.6142, 3.1439 -1.3008 0.5072, 3.9566 -1.5764 0.6142, 3.9425 -1.5764 0.5072, 3.9425 -1.3008 0.5072, 3.9012 -1.5764 0.4075, 3.9012 -1.3008 0.4075, 3.8356 -1.5764 0.3219, 3.8356 -1.3008 0.3219, 3.7499 -1.5764 0.2562, 3.7499 -1.3008 0.2562, 3.6502 -1.5764 0.2149, 3.6502 -1.3008 0.2149, 3.5432 -1.5764 0.2008, 3.5432 -1.3008 0.2008, 3.4363 -1.5764 0.2149, 3.4363 -1.3008 0.2149, 3.3366 -1.5764 0.2562, 3.3366 -1.3008 0.2562, 3.2509 -1.5764 0.3219, 3.2509 -1.3008 0.3219, 3.1852 -1.5764 0.4075, 3.1852 -1.3008 0.4075, 3.1439 -1.5764 0.5072, 3.1299 -1.5764 0.6142, 3.0511 -1.2614 1.8937, 2.3425 -1.5764 1.8937, 2.2599 0.7157 1.8937, 2.1456 1.0596 1.8937, 3.0511 1.2582 1.8937, 2.1456 1.3764 1.8937, 2.1523 1.4273 1.8937, 2.1456 -1.0628 1.8937, 2.2599 -0.7189 1.8937, 2.1456 -1.3796 1.8937, 2.3292 -0.3632 1.8937, 2.3524 -0.0016 1.8937, 2.3292 0.36 1.8937, 2.172 1.4748 1.8937, 2.2033 1.5155 1.8937, 2.244 1.5468 1.8937, 2.3425 1.5732 1.8937, 2.2915 1.5665 1.8937, 2.2915 -1.5697 1.8937, 2.244 -1.55 1.8937, 2.2033 -1.5187 1.8937, 2.172 -1.478 1.8937, 2.1523 -1.4305 1.8937, 2.1456 1.3764 1.9724, 2.1456 1.0596 1.9724, 3.2086 1.2582 1.9724, 3.2086 1.5732 1.9724, 3.0511 1.2582 1.9724, 2.3425 1.5732 1.9724, 2.3524 -0.0016 1.9724, 2.3292 -0.3632 1.9724, 3.0511 -1.2614 1.9724, 2.2599 -0.7189 1.9724, 2.2033 1.5155 1.9724, 2.172 1.4748 1.9724, 2.1523 1.4273 1.9724, 2.3292 0.36 1.9724, 2.2599 0.7157 1.9724, 2.2915 1.5665 1.9724, 2.244 1.5468 1.9724, 3.2086 -1.5764 1.9724, 3.2086 -1.2614 1.9724, 2.3425 -1.5764 1.9724, 2.2915 -1.5697 1.9724, 2.244 -1.55 1.9724, 2.1456 -1.0628 1.9724, 2.1456 -1.3796 1.9724, 2.1523 -1.4305 1.9724, 2.172 -1.478 1.9724, 2.2033 -1.5187 1.9724, 3.2086 1.5732 0.6142, 3.2086 1.2582 1.3819, 3.2086 -1.2614 1.3819, 3.2086 -1.5764 0.6142, 3.2086 -1.3008 0.6142, 3.2086 -1.3008 0.7913, 3.2086 -0.9859 0.6142, 3.2086 -0.5922 0.6142, 3.2086 -0.9859 0.7913, 3.2086 -0.5922 0.7913, 3.2086 0.589 0.7913, 3.2086 1.2976 0.6142, 3.2086 1.2976 0.7913, 3.2086 0.9827 0.7913, 3.2086 0.9827 0.6142, 3.2086 0.589 0.6142, 3.22 -1.3008 0.5276, 3.22 -1.5764 0.5276, 3.2534 -1.3008 0.4469, 3.2534 -1.5764 0.4469, 3.3066 -1.3008 0.3775, 3.3066 -1.5764 0.3775, 3.3759 -1.3008 0.3244, 3.3759 -1.5764 0.3244, 3.4566 -1.3008 0.2909, 3.4566 -1.5764 0.2909, 3.5432 -1.3008 0.2795, 3.5432 -1.5764 0.2795, 3.6299 -1.3008 0.2909, 3.6299 -1.5764 0.2909, 3.7106 -1.3008 0.3244, 3.7106 -1.5764 0.3244, 3.7799 -1.3008 0.3775, 3.7799 -1.5764 0.3775, 3.8331 -1.3008 0.4469, 3.8331 -1.5764 0.4469, 3.8665 -1.3008 0.5276, 3.8665 -1.5764 0.5276, 3.9566 1.5732 1.1063, 3.9566 1.5732 0.6142, 3.8665 1.5732 0.5276, 3.9425 1.5732 0.5072, 3.8331 1.5732 0.4469, 3.9012 1.5732 0.4075, 3.7799 1.5732 0.3775, 3.8356 1.5732 0.3219, 3.7106 1.5732 0.3244, 3.7499 1.5732 0.2562, 3.6299 1.5732 0.2909, 3.6502 1.5732 0.2149, 3.5432 1.5732 0.2795, 3.5432 1.5732 0.2008, 3.4566 1.5732 0.2909, 3.4363 1.5732 0.2149, 3.3759 1.5732 0.3244, 3.3366 1.5732 0.2562, 3.3066 1.5732 0.3775, 3.2509 1.5732 0.3219, 3.2534 1.5732 0.4469, 3.1852 1.5732 0.4075, 3.22 1.5732 0.5276, 3.1439 1.5732 0.5072, 3.1299 1.5732 0.6142, 3.9566 -1.5764 1.1063, 3.22 0.589 0.5276, 3.1439 0.589 0.5072, 3.2534 0.589 0.4469, 3.1852 0.589 0.4075, 3.3066 0.589 0.3775, 3.2509 0.589 0.3219, 3.3759 0.589 0.3244, 3.3366 0.589 0.2562, 3.4566 0.589 0.2909, 3.4363 0.589 0.2149, 3.5432 0.589 0.2795, 3.5432 0.589 0.2008, 3.6299 0.589 0.2909, 3.6502 0.589 0.2149, 3.7106 0.589 0.3244, 3.7499 0.589 0.2562, 3.7799 0.589 0.3775, 3.8356 0.589 0.3219, 3.8331 0.589 0.4469, 3.9012 0.589 0.4075, 3.8665 0.589 0.5276, 3.9425 0.589 0.5072, 3.8665 -0.5922 0.5276, 3.9425 -0.5922 0.5072, 3.8331 -0.5922 0.4469, 3.9012 -0.5922 0.4075, 3.7799 -0.5922 0.3775, 3.8356 -0.5922 0.3219, 3.7106 -0.5922 0.3244, 3.7499 -0.5922 0.2562, 3.6299 -0.5922 0.2909, 3.6502 -0.5922 0.2149, 3.5432 -0.5922 0.2795, 3.5432 -0.5922 0.2008, 3.4566 -0.5922 0.2909, 3.4363 -0.5922 0.2149, 3.3759 -0.5922 0.3244, 3.3366 -0.5922 0.2562, 3.3066 -0.5922 0.3775, 3.2509 -0.5922 0.3219, 3.2534 -0.5922 0.4469, 3.1852 -0.5922 0.4075, 3.22 -0.5922 0.5276, 3.1439 -0.5922 0.5072, 3.22 -0.9859 0.5276, 3.1439 -0.9859 0.5072, 3.2534 -0.9859 0.4469, 3.1852 -0.9859 0.4075, 3.3066 -0.9859 0.3775, 3.2509 -0.9859 0.3219, 3.3759 -0.9859 0.3244, 3.3366 -0.9859 0.2562, 3.4566 -0.9859 0.2909, 3.4363 -0.9859 0.2149, 3.5432 -0.9859 0.2795, 3.5432 -0.9859 0.2008, 3.6299 -0.9859 0.2909, 3.6502 -0.9859 0.2149, 3.7106 -0.9859 0.3244, 3.7499 -0.9859 0.2562, 3.7799 -0.9859 0.3775, 3.8356 -0.9859 0.3219, 3.8331 -0.9859 0.4469, 3.9012 -0.9859 0.4075, 3.8665 -0.9859 0.5276, 3.9425 -0.9859 0.5072, 3.22 1.2976 0.5276, 3.1439 1.2976 0.5072, 3.2534 1.2976 0.4469, 3.1852 1.2976 0.4075, 3.3066 1.2976 0.3775, 3.2509 1.2976 0.3219, 3.3759 1.2976 0.3244, 3.3366 1.2976 0.2562, 3.4566 1.2976 0.2909, 3.4363 1.2976 0.2149, 3.5432 1.2976 0.2795, 3.5432 1.2976 0.2008, 3.6299 1.2976 0.2909, 3.6502 1.2976 0.2149, 3.7106 1.2976 0.3244, 3.7499 1.2976 0.2562, 3.7799 1.2976 0.3775, 3.8356 1.2976 0.3219, 3.8331 1.2976 0.4469, 3.9012 1.2976 0.4075, 3.8665 1.2976 0.5276, 3.9425 1.2976 0.5072, 3.8665 0.9827 0.5276, 3.9425 0.9827 0.5072, 3.8331 0.9827 0.4469, 3.9012 0.9827 0.4075, 3.7799 0.9827 0.3775, 3.8356 0.9827 0.3219, 3.7106 0.9827 0.3244, 3.7499 0.9827 0.2562, 3.6299 0.9827 0.2909, 3.6502 0.9827 0.2149, 3.5432 0.9827 0.2795, 3.5432 0.9827 0.2008, 3.4566 0.9827 0.2909, 3.4363 0.9827 0.2149, 3.3759 0.9827 0.3244, 3.3366 0.9827 0.2562, 3.3066 0.9827 0.3775, 3.2509 0.9827 0.3219, 3.2534 0.9827 0.4469, 3.1852 0.9827 0.4075, 3.22 0.9827 0.5276, 3.1439 0.9827 0.5072, 4.2189 -0.0016 0.0787, 4.464 -0.0339 0.0787, 4.7047 -0.3559 0.0787, 4.4683 -0.0016 0.0787, 4.7047 0.3527 0.0787, 4.464 0.0307 0.0787, 4.4515 0.0607 0.0787, 4.5078 -0.5528 0.0787, 4.5588 -0.5461 0.0787, 4.4059 -0.1096 0.0787, 4.6062 -0.5264 0.0787, 4.647 -0.4951 0.0787, 4.2231 0.0307 0.0787, 4.2356 0.0607 0.0787, 4.2554 0.0866 0.0787, 4.4515 -0.0639 0.0787, 4.4317 -0.0898 0.0787, 4.698 -0.4069 0.0787, 4.6783 -0.4544 0.0787, 4.3758 -0.122 0.0787, 4.3436 -0.1263 0.0787, 4.3113 -0.122 0.0787, 4.2812 -0.1096 0.0787, 4.2554 -0.0898 0.0787, 4.5588 0.5429 0.0787, 4.5078 0.5496 0.0787, 4.3758 0.1188 0.0787, 4.2356 -0.0639 0.0787, 4.2231 -0.0339 0.0787, 4.2812 0.1064 0.0787, 4.3113 0.1188 0.0787, 4.3436 0.1231 0.0787, 4.698 0.4037 0.0787, 4.4059 0.1064 0.0787, 4.4317 0.0866 0.0787, 4.6783 0.4512 0.0787, 4.647 0.4919 0.0787, 4.6062 0.5232 0.0787, 4.7047 0.3527 0.0, 4.7047 -0.3559 0.0, 3.9566 -0.5528 0.0, 3.9566 0.5496 0.0, 4.2189 -0.0016 0.0, 4.6783 -0.4544 0.0, 4.647 -0.4951 0.0, 4.4059 -0.1096 0.0, 4.4317 -0.0898 0.0, 4.4515 -0.0639 0.0, 4.464 0.0307 0.0, 4.4683 -0.0016 0.0, 4.464 -0.0339 0.0, 4.698 -0.4069 0.0, 4.2231 -0.0339 0.0, 4.2356 -0.0639 0.0, 4.2554 -0.0898 0.0, 4.2812 -0.1096 0.0, 4.3113 -0.122 0.0, 4.5078 -0.5528 0.0, 4.6062 -0.5264 0.0, 4.5588 -0.5461 0.0, 4.3758 -0.122 0.0, 4.3436 -0.1263 0.0, 4.4515 0.0607 0.0, 4.4317 0.0866 0.0, 4.698 0.4037 0.0, 4.4059 0.1064 0.0, 4.6783 0.4512 0.0, 4.647 0.4919 0.0, 4.6062 0.5232 0.0, 4.3758 0.1188 0.0, 4.5588 0.5429 0.0, 4.5078 0.5496 0.0, 4.3436 0.1231 0.0, 4.3113 0.1188 0.0, 4.2812 0.1064 0.0, 4.2554 0.0866 0.0, 4.2356 0.0607 0.0, 4.2231 0.0307 0.0, 3.9363 -0.5528 0.0027, 3.9363 0.5496 0.0027, 3.9173 -0.5528 0.0105, 3.9173 0.5496 0.0105, 3.901 -0.5528 0.0231, 3.901 0.5496 0.0231, 3.8884 -0.5528 0.0394, 3.8884 0.5496 0.0394, 3.8806 -0.5528 0.0584, 3.8806 0.5496 0.0584
            ]
        }
        coordIndex [
            0,1,2,-1,2,1,3,-1,3,4,5,-1,5,6,7,-1,7,6,8,-1,3,5,2,-1,2,5,7,-1,2,7,9,-1,10,11,12,-1,13,14,2,-1,12,13,10,-1,10,13,2,-1,10,2,15,-1,15,2,9,-1,15,9,16,-1,16,9,17,-1,18,19,20,-1,20,19,2,-1,20,2,21,-1,21,2,14,-1,21,14,22,-1,22,14,23,-1,24,25,26,-1,27,28,29,-1,29,28,30,-1,31,32,33,-1,33,32,27,-1,33,27,34,-1,35,36,37,-1,37,36,38,-1,27,29,34,-1,34,29,37,-1,34,37,39,-1,39,37,38,-1,39,38,40,-1,41,42,43,-1,43,42,44,-1,43,44,39,-1,26,43,24,-1,24,43,39,-1,24,39,45,-1,45,39,40,-1,45,40,46,-1,46,40,47,-1,48,49,50,-1,50,49,51,-1,52,53,50,-1,51,54,50,-1,50,54,55,-1,50,55,52,-1,56,57,58,-1,58,59,56,-1,56,59,55,-1,56,55,60,-1,60,55,54,-1,60,54,61,-1,61,54,62,-1,63,64,65,-1,65,64,66,-1,67,68,55,-1,59,65,55,-1,55,65,66,-1,55,66,67,-1,67,66,69,-1,67,69,70,-1,70,69,71,-1,3,1,55,-1,55,1,52,-1,26,25,72,-1,6,73,74,-1,75,8,6,-1,6,74,75,-1,75,74,76,-1,75,76,77,-1,77,76,78,-1,77,78,79,-1,79,78,80,-1,79,80,81,-1,81,80,82,-1,81,82,83,-1,83,82,84,-1,83,84,85,-1,85,84,86,-1,85,86,87,-1,87,86,88,-1,87,88,89,-1,89,88,90,-1,89,90,91,-1,91,90,92,-1,91,92,93,-1,93,92,94,-1,93,94,72,-1,72,94,95,-1,72,95,26,-1,44,42,96,-1,96,42,97,-1,98,99,100,-1,100,99,101,-1,100,101,102,-1,103,104,105,-1,105,104,96,-1,104,106,96,-1,96,106,107,-1,96,107,100,-1,100,107,108,-1,100,108,98,-1,102,109,100,-1,100,109,110,-1,100,110,111,-1,31,33,112,-1,112,33,100,-1,112,100,113,-1,113,100,111,-1,97,114,96,-1,96,114,115,-1,96,115,116,-1,116,117,96,-1,96,117,118,-1,96,118,105,-1,101,99,119,-1,119,99,120,-1,121,122,123,-1,123,122,124,-1,125,126,127,-1,127,126,128,-1,129,130,123,-1,123,130,131,-1,123,131,119,-1,125,127,132,-1,132,127,123,-1,132,123,133,-1,133,123,119,-1,133,119,120,-1,124,134,123,-1,123,134,135,-1,123,135,129,-1,136,137,138,-1,138,137,127,-1,138,127,139,-1,139,127,140,-1,128,141,127,-1,127,141,142,-1,127,142,143,-1,143,144,127,-1,127,144,145,-1,127,145,140,-1,122,121,146,-1,146,121,147,-1,137,136,148,-1,148,136,149,-1,149,150,151,-1,152,153,154,-1,154,153,155,-1,149,151,148,-1,148,151,154,-1,148,154,147,-1,147,154,155,-1,147,155,156,-1,157,146,158,-1,158,146,147,-1,158,147,159,-1,159,147,156,-1,159,156,160,-1,160,156,161,-1,150,149,162,-1,162,149,163,-1,162,163,164,-1,164,163,165,-1,164,165,166,-1,166,165,167,-1,166,167,168,-1,168,167,169,-1,168,169,170,-1,170,169,171,-1,170,171,172,-1,172,171,173,-1,172,173,174,-1,174,173,175,-1,174,175,176,-1,176,175,177,-1,176,177,178,-1,178,177,179,-1,178,179,180,-1,180,179,181,-1,180,181,182,-1,182,181,183,-1,182,183,71,-1,71,183,70,-1,112,124,31,-1,31,124,122,-1,50,184,48,-1,48,184,185,-1,48,185,186,-1,186,185,187,-1,186,187,188,-1,188,187,189,-1,188,189,190,-1,190,189,191,-1,190,191,192,-1,192,191,193,-1,192,193,194,-1,194,193,195,-1,194,195,196,-1,196,195,197,-1,196,197,198,-1,198,197,199,-1,198,199,200,-1,200,199,201,-1,200,201,202,-1,202,201,203,-1,202,203,204,-1,204,203,205,-1,204,205,206,-1,206,205,207,-1,206,207,146,-1,146,207,208,-1,146,208,122,-1,122,208,32,-1,122,32,31,-1,136,138,97,-1,97,42,136,-1,136,42,41,-1,136,41,149,-1,149,41,95,-1,149,95,163,-1,163,95,94,-1,163,94,165,-1,165,94,92,-1,165,92,167,-1,167,92,90,-1,167,90,169,-1,169,90,88,-1,169,88,171,-1,171,88,86,-1,171,86,173,-1,173,86,84,-1,173,84,175,-1,175,84,82,-1,175,82,177,-1,177,82,80,-1,177,80,179,-1,179,80,78,-1,179,78,181,-1,181,78,76,-1,181,76,183,-1,183,76,74,-1,183,74,70,-1,70,74,73,-1,70,73,67,-1,67,73,209,-1,10,15,59,-1,59,15,65,-1,38,156,40,-1,40,156,155,-1,156,38,161,-1,161,38,36,-1,161,36,210,-1,210,36,211,-1,210,211,212,-1,212,211,213,-1,212,213,214,-1,214,213,215,-1,214,215,216,-1,216,215,217,-1,216,217,218,-1,218,217,219,-1,218,219,220,-1,220,219,221,-1,220,221,222,-1,222,221,223,-1,222,223,224,-1,224,223,225,-1,224,225,226,-1,226,225,227,-1,226,227,228,-1,228,227,229,-1,228,229,230,-1,230,229,231,-1,230,231,61,-1,61,231,23,-1,61,23,60,-1,60,23,14,-1,65,15,63,-1,63,15,16,-1,63,16,232,-1,232,16,233,-1,232,233,234,-1,234,233,235,-1,234,235,236,-1,236,235,237,-1,236,237,238,-1,238,237,239,-1,238,239,240,-1,240,239,241,-1,240,241,242,-1,242,241,243,-1,242,243,244,-1,244,243,245,-1,244,245,246,-1,246,245,247,-1,246,247,248,-1,248,247,249,-1,248,249,250,-1,250,249,251,-1,250,251,252,-1,252,251,253,-1,252,253,153,-1,153,253,47,-1,153,47,155,-1,155,47,40,-1,7,69,9,-1,9,69,66,-1,45,154,24,-1,24,154,151,-1,154,45,152,-1,152,45,46,-1,152,46,254,-1,254,46,255,-1,254,255,256,-1,256,255,257,-1,256,257,258,-1,258,257,259,-1,258,259,260,-1,260,259,261,-1,260,261,262,-1,262,261,263,-1,262,263,264,-1,264,263,265,-1,264,265,266,-1,266,265,267,-1,266,267,268,-1,268,267,269,-1,268,269,270,-1,270,269,271,-1,270,271,272,-1,272,271,273,-1,272,273,274,-1,274,273,275,-1,274,275,64,-1,64,275,17,-1,64,17,66,-1,66,17,9,-1,69,7,71,-1,71,7,8,-1,71,8,182,-1,182,8,75,-1,182,75,180,-1,180,75,77,-1,180,77,178,-1,178,77,79,-1,178,79,176,-1,176,79,81,-1,176,81,174,-1,174,81,83,-1,174,83,172,-1,172,83,85,-1,172,85,170,-1,170,85,87,-1,170,87,168,-1,168,87,89,-1,168,89,166,-1,166,89,91,-1,166,91,164,-1,164,91,93,-1,164,93,162,-1,162,93,72,-1,162,72,150,-1,150,72,25,-1,150,25,151,-1,151,25,24,-1,20,21,51,-1,51,21,54,-1,37,29,159,-1,159,29,158,-1,158,29,157,-1,157,29,30,-1,157,30,276,-1,276,30,277,-1,276,277,278,-1,278,277,279,-1,278,279,280,-1,280,279,281,-1,280,281,282,-1,282,281,283,-1,282,283,284,-1,284,283,285,-1,284,285,286,-1,286,285,287,-1,286,287,288,-1,288,287,289,-1,288,289,290,-1,290,289,291,-1,290,291,292,-1,292,291,293,-1,292,293,294,-1,294,293,295,-1,294,295,296,-1,296,295,297,-1,296,297,49,-1,49,297,18,-1,49,18,51,-1,51,18,20,-1,54,21,62,-1,62,21,22,-1,62,22,298,-1,298,22,299,-1,298,299,300,-1,300,299,301,-1,300,301,302,-1,302,301,303,-1,302,303,304,-1,304,303,305,-1,304,305,306,-1,306,305,307,-1,306,307,308,-1,308,307,309,-1,308,309,310,-1,310,309,311,-1,310,311,312,-1,312,311,313,-1,312,313,314,-1,314,313,315,-1,314,315,316,-1,316,315,317,-1,316,317,318,-1,318,317,319,-1,318,319,160,-1,160,319,35,-1,160,35,159,-1,159,35,37,-1,320,12,11,-1,321,322,323,-1,323,322,324,-1,323,324,325,-1,325,324,326,-1,327,328,329,-1,329,328,330,-1,329,330,331,-1,320,332,12,-1,12,332,333,-1,12,333,334,-1,321,335,322,-1,322,335,336,-1,322,336,337,-1,337,336,329,-1,337,329,338,-1,338,329,331,-1,329,339,327,-1,327,339,340,-1,327,340,11,-1,340,341,11,-1,11,341,342,-1,11,342,343,-1,344,345,346,-1,343,347,11,-1,11,347,348,-1,11,348,320,-1,334,349,12,-1,12,349,350,-1,12,350,345,-1,345,350,351,-1,345,351,346,-1,352,353,324,-1,324,353,354,-1,324,354,326,-1,352,355,353,-1,353,355,356,-1,353,356,346,-1,346,356,357,-1,346,357,344,-1,324,322,358,-1,358,322,359,-1,360,361,362,-1,363,364,365,-1,359,366,367,-1,368,358,369,-1,369,358,359,-1,369,359,370,-1,370,359,367,-1,366,359,365,-1,365,359,371,-1,365,371,363,-1,362,372,360,-1,360,372,373,-1,360,373,374,-1,374,375,360,-1,360,375,376,-1,360,376,377,-1,364,378,365,-1,365,378,379,-1,365,379,380,-1,380,379,377,-1,380,377,381,-1,381,377,376,-1,368,382,358,-1,358,382,383,-1,358,383,384,-1,384,383,385,-1,384,385,386,-1,386,385,387,-1,387,385,388,-1,388,385,389,-1,388,389,390,-1,390,389,391,-1,391,389,392,-1,391,392,361,-1,392,393,361,-1,361,393,394,-1,361,394,395,-1,395,396,361,-1,361,396,397,-1,361,397,362,-1,361,360,398,-1,361,398,399,-1,399,398,400,-1,399,400,401,-1,401,400,402,-1,401,402,403,-1,403,402,404,-1,403,404,405,-1,405,404,406,-1,405,406,407,-1,407,406,58,-1,407,58,57,-1,56,13,57,-1,57,13,12,-1,345,391,12,-1,12,391,361,-1,403,405,12,-1,12,405,407,-1,12,407,57,-1,361,399,12,-1,12,399,401,-1,12,401,403,-1,11,402,400,-1,10,59,11,-1,11,59,58,-1,377,327,360,-1,360,327,11,-1,360,11,398,-1,398,11,400,-1,58,406,11,-1,11,406,404,-1,11,404,402,-1,
        ]
    }
}
Shape{
    appearance Appearance {
        material  Material 	{
            diffuseColor 0.5019607843137255 0.5019607843137255 0.5019607843137255
            specularColor 0.25098039215686274 0.25098039215686274 0.25098039215686274
            ambientIntensity 0.502
            transparency 0.0
            shininess 0.5
        }
    }
    geometry IndexedFaceSet {
        ccw TRUE
        solid FALSE
        coord DEF co Coordinate {
            point [
                -2.7998 -1.7744 0.0433, -2.7998 -1.7744 0.122, -1.9735 -1.7744 0.0433, -1.9735 -1.7744 0.122, -1.9735 -1.6169 0.0433, -1.9735 -1.6169 0.122, -2.7998 -1.6169 0.0433, -2.7998 -1.6169 0.122, -2.7998 1.7712 0.0433, -2.7998 1.7712 0.122, -2.7998 1.6137 0.0433, -2.7998 1.6137 0.122, -1.9735 1.6137 0.0433, -1.9735 1.6137 0.122, -1.9735 1.7712 0.0433, -1.9735 1.7712 0.122
            ]
        }
        coordIndex [
            0,1,2,-1,2,1,3,-1,2,3,4,-1,4,3,5,-1,4,5,6,-1,6,5,7,-1,6,7,0,-1,0,7,1,-1,8,9,10,-1,10,9,11,-1,10,11,12,-1,12,11,13,-1,12,13,14,-1,14,13,15,-1,14,15,8,-1,8,15,9,-1,
        ]
    }
}
Shape{
    appearance Appearance {
        material  Material 	{
            diffuseColor 1.0 1.0 0.0
            specularColor 0.5019607843137255 0.5019607843137255 0.0
            ambientIntensity 0.886
            transparency 0.0
            shininess 0.5
        }
    }
    geometry IndexedFaceSet {
        ccw TRUE
        solid FALSE
        coord DEF co Coordinate {
            point [
                4.7047 0.3527 0.0787, 4.7047 0.3527 0.0, 4.698 0.4037 0.0, 4.698 0.4037 0.0787, 4.6783 0.4512 0.0, 4.6783 0.4512 0.0787, 4.647 0.4919 0.0, 4.647 0.4919 0.0787, 4.6062 0.5232 0.0, 4.6062 0.5232 0.0787, 4.5588 0.5429 0.0, 4.5588 0.5429 0.0787, 4.5078 0.5496 0.0, 4.5078 0.5496 0.0787, 4.7047 -0.3559 0.0, 4.7047 -0.3559 0.0787, 4.698 -0.4069 0.0787, 4.698 -0.4069 0.0, 4.6783 -0.4544 0.0787, 4.6783 -0.4544 0.0, 4.647 -0.4951 0.0787, 4.647 -0.4951 0.0, 4.6062 -0.5264 0.0787, 4.6062 -0.5264 0.0, 4.5588 -0.5461 0.0787, 4.5588 -0.5461 0.0, 4.5078 -0.5528 0.0787, 4.5078 -0.5528 0.0, 3.0511 1.2582 1.9724, 3.0511 -1.2614 1.9724, 3.0511 1.2582 1.8937, 3.0511 -1.2614 1.8937, 3.1299 1.2582 1.3819, 3.2086 1.2582 1.3819, 3.1299 1.2582 1.8937, 3.2086 1.2582 1.9724, 3.1299 -1.2614 1.8937, 3.2086 -1.2614 1.9724, 3.1299 -1.2614 1.3819, 3.2086 -1.2614 1.3819, 2.1456 -1.0628 1.8937, 2.1456 -1.0628 1.9724, 2.2599 -0.7189 1.8937, 2.2599 -0.7189 1.9724, 2.3292 -0.3632 1.8937, 2.3292 -0.3632 1.9724, 2.3524 -0.0016 1.8937, 2.3524 -0.0016 1.9724, 2.3292 0.36 1.8937, 2.3292 0.36 1.9724, 2.2599 0.7157 1.8937, 2.2599 0.7157 1.9724, 2.1456 1.0596 1.8937, 2.1456 1.0596 1.9724, 2.1456 1.3764 1.8937, 2.1456 1.3764 1.9724, 2.1523 1.4273 1.9724, 2.1523 1.4273 1.8937, 2.172 1.4748 1.9724, 2.172 1.4748 1.8937, 2.2033 1.5155 1.9724, 2.2033 1.5155 1.8937, 2.244 1.5468 1.9724, 2.244 1.5468 1.8937, 2.2915 1.5665 1.9724, 2.2915 1.5665 1.8937, 2.3425 1.5732 1.9724, 2.3425 1.5732 1.8937, 2.1456 -1.3796 1.9724, 2.1456 -1.3796 1.8937, 2.1523 -1.4305 1.8937, 2.1523 -1.4305 1.9724, 2.172 -1.478 1.8937, 2.172 -1.478 1.9724, 2.2033 -1.5187 1.8937, 2.2033 -1.5187 1.9724, 2.244 -1.55 1.8937, 2.244 -1.55 1.9724, 2.2915 -1.5697 1.8937, 2.2915 -1.5697 1.9724, 2.3425 -1.5764 1.8937, 2.3425 -1.5764 1.9724
            ]
        }
        coordIndex [
            0,1,2,-1,0,2,3,-1,3,2,4,-1,3,4,5,-1,5,4,6,-1,5,6,7,-1,7,6,8,-1,7,8,9,-1,9,8,10,-1,9,10,11,-1,11,10,12,-1,11,12,13,-1,14,15,16,-1,14,16,17,-1,17,16,18,-1,17,18,19,-1,19,18,20,-1,19,20,21,-1,21,20,22,-1,21,22,23,-1,23,22,24,-1,23,24,25,-1,25,24,26,-1,25,26,27,-1,28,29,30,-1,30,29,31,-1,32,33,34,-1,34,33,35,-1,34,35,30,-1,30,35,28,-1,31,29,36,-1,36,29,37,-1,36,37,38,-1,38,37,39,-1,33,32,39,-1,39,32,38,-1,40,41,42,-1,42,41,43,-1,42,43,44,-1,44,43,45,-1,44,45,46,-1,46,45,47,-1,46,47,48,-1,48,47,49,-1,48,49,50,-1,50,49,51,-1,50,51,52,-1,52,51,53,-1,54,55,56,-1,54,56,57,-1,57,56,58,-1,57,58,59,-1,59,58,60,-1,59,60,61,-1,61,60,62,-1,61,62,63,-1,63,62,64,-1,63,64,65,-1,65,64,66,-1,65,66,67,-1,68,69,70,-1,68,70,71,-1,71,70,72,-1,71,72,73,-1,73,72,74,-1,73,74,75,-1,75,74,76,-1,75,76,77,-1,77,76,78,-1,77,78,79,-1,79,78,80,-1,79,80,81,-1,
        ]
    }
}
Shape{
    appearance Appearance {
        material  Material 	{
            diffuseColor 0.5019607843137255 0.5019607843137255 0.5019607843137255
            specularColor 0.25098039215686274 0.25098039215686274 0.25098039215686274
            ambientIntensity 0.502
            transparency 0.0
            shininess 0.5
        }
    }
    geometry IndexedFaceSet {
        ccw TRUE
        solid FALSE
        coord DEF co Coordinate {
            point [
                1.8503 3.089 0.2008, 1.8503 3.089 1.8543, 2.2119 3.089 1.8543, 2.2119 3.089 0.0039, -0.7914 3.089 0.0039, -3.6615 3.089 0.2008, -1.0795 3.089 0.0039, -1.4492 3.089 0.0039, -1.8765 3.089 0.0039, -4.023 3.089 2.0906, -3.6615 3.089 2.0906, -4.023 3.089 0.0039, -3.3464 3.089 0.0039, -3.6615 -3.0922 2.0906, -4.023 -3.0922 2.0906, -3.6615 -3.0922 0.2008, -4.023 -3.0922 0.0039, -3.3464 -3.0922 0.0039, -1.8765 -3.0922 0.0039, -1.4492 -3.0922 0.0039, -1.0795 -3.0922 0.0039, -0.7914 -3.0922 0.0039, 1.8503 -3.0922 0.2008, 2.2119 -3.0922 0.0039, 1.8503 -3.0922 1.8543, 2.2119 -3.0922 1.8543, -4.3038 1.1938 0.0039, -4.7186 1.1938 0.0039, -4.3038 1.1938 0.2008, -4.7186 1.1938 0.2008, -4.2269 1.3841 0.0039, -4.1806 1.4988 0.2008, -4.1806 1.4988 0.0039, -4.0301 1.7912 0.2008, -4.0301 1.7912 0.0039, -3.8536 2.0687 0.2008, -3.8536 2.0687 0.0039, -4.3235 2.0687 0.0039, -4.3235 2.0687 0.2008, -4.3038 -1.197 0.2008, -4.3038 -1.197 0.0039, -4.1806 -1.502 0.0039, -4.1806 -1.502 0.2008, -4.0301 -1.7944 0.0039, -4.0301 -1.7944 0.2008, -3.8536 -2.0719 0.2008, -3.9357 -1.9428 0.0039, -3.8536 -2.0719 0.0039, -4.7186 -1.197 0.0039, -4.7186 -1.197 0.2008, -4.3235 -2.0719 0.0039, -4.3235 -2.0719 0.2008
            ]
        }
        coordIndex [
            0,1,2,-1,2,3,0,-1,0,3,4,-1,0,4,5,-1,4,6,5,-1,5,6,7,-1,5,7,8,-1,9,10,11,-1,11,10,5,-1,11,5,12,-1,12,5,8,-1,13,14,15,-1,15,14,16,-1,16,17,15,-1,15,17,18,-1,15,18,19,-1,19,20,15,-1,15,20,21,-1,15,21,22,-1,22,21,23,-1,22,23,24,-1,24,23,25,-1,26,27,28,-1,28,27,29,-1,26,28,30,-1,30,28,31,-1,30,31,32,-1,32,31,33,-1,32,33,34,-1,34,33,35,-1,34,35,36,-1,37,36,38,-1,38,36,35,-1,39,40,41,-1,39,41,42,-1,42,41,43,-1,42,43,44,-1,44,43,45,-1,45,43,46,-1,45,46,47,-1,48,40,49,-1,49,40,39,-1,47,50,45,-1,45,50,51,-1,
        ]
    }
}
Shape{
    appearance Appearance {
        material  Material 	{
            diffuseColor 1.0 1.0 0.0
            specularColor 0.5019607843137255 0.5019607843137255 0.0
            ambientIntensity 0.886
            transparency 0.0
            shininess 0.5
        }
    }
    geometry IndexedFaceSet {
        ccw TRUE
        solid FALSE
        coord DEF co Coordinate {
            point [
                3.9566 2.0456 1.1063, 3.8779 2.0456 1.1063, 3.9566 2.0456 1.8543, 3.8779 2.0456 1.8937, 3.9566 2.0456 1.8937, 3.9566 1.5732 1.1063, 3.8779 1.5732 1.1063, 3.9566 -2.0488 1.8937, 3.8779 -2.0488 1.8937, 3.9566 -2.0488 1.8543, 3.8779 -2.0488 1.1063, 3.9566 -2.0488 1.1063, 3.9566 -1.5764 1.1063, 3.8779 -1.5764 1.1063
            ]
        }
        coordIndex [
            0,1,2,-1,2,1,3,-1,2,3,4,-1,0,5,1,-1,1,5,6,-1,7,8,9,-1,9,8,10,-1,9,10,11,-1,11,10,12,-1,12,10,13,-1,
        ]
    }
}
Shape{
    appearance Appearance {
        material  Material 	{
            diffuseColor 0.5019607843137255 0.5019607843137255 0.5019607843137255
            specularColor 0.25098039215686274 0.25098039215686274 0.25098039215686274
            ambientIntensity 0.502
            transparency 0.0
            shininess 0.5
        }
    }
    geometry IndexedFaceSet {
        ccw TRUE
        solid FALSE
        coord DEF co Coordinate {
            point [
                -1.9342 -1.8138 0.0039, -1.9735 -1.7744 0.0433, -1.9342 -1.5775 0.0039, -1.9735 -1.6169 0.0433, -2.8392 -1.8138 0.0039, -2.7998 -1.7744 0.0433, -2.7998 -1.6169 0.0433, -2.8392 -1.5775 0.0039, -1.9342 1.5743 0.0039, -1.9735 1.6137 0.0433, -1.9342 1.8106 0.0039, -1.9735 1.7712 0.0433, -2.8392 1.5743 0.0039, -2.7998 1.6137 0.0433, -2.7998 1.7712 0.0433, -2.8392 1.8106 0.0039
            ]
        }
        coordIndex [
            0,1,2,-1,2,1,3,-1,4,5,0,-1,0,5,1,-1,6,7,3,-1,3,7,2,-1,7,6,4,-1,4,6,5,-1,8,9,10,-1,10,9,11,-1,12,13,8,-1,8,13,9,-1,14,15,11,-1,11,15,10,-1,15,14,12,-1,12,14,13,-1,
        ]
    }
}
Shape{
    appearance Appearance {
        material  Material 	{
            diffuseColor 0.0 0.0 0.0
            specularColor 0.0 0.0 0.0
            ambientIntensity 0.0
            transparency 0.0
            shininess 0.5
        }
    }
    geometry IndexedFaceSet {
        ccw TRUE
        solid FALSE
        coord DEF co Coordinate {
            point [
                -1.6653 0.1616 0.0043, -1.8189 -0.2321 0.0043, -1.6653 0.1616 0.0039, -1.8189 -0.2321 0.0039, -1.7613 -0.2321 0.0043, -1.7613 -0.2321 0.0039, -1.7214 -0.1217 0.0043, -1.7214 -0.1217 0.0039, -1.5588 -0.1217 0.0043, -1.5588 -0.1217 0.0039, -1.5212 -0.2321 0.0043, -1.5212 -0.2321 0.0039, -1.4636 -0.2321 0.0043, -1.4636 -0.2321 0.0039, -1.6124 0.1616 0.0043, -1.6124 0.1616 0.0039, -1.5721 -0.0785 0.0043, -1.7037 -0.0785 0.0043, -1.6308 0.086 0.0043, -1.6346 0.0996 0.0043, -1.6371 0.1136 0.0043, -1.6384 0.1136 0.0043, -1.641 0.0996 0.0043, -1.6445 0.086 0.0043, -1.5721 -0.0785 0.0039, -1.7037 -0.0785 0.0039, -1.6308 0.086 0.0039, -1.6346 0.0996 0.0039, -1.6371 0.1136 0.0039, -1.6384 0.1136 0.0039, -1.641 0.0996 0.0039, -1.6445 0.086 0.0039, -1.225 -0.2321 0.0043, -1.1179 -0.2321 0.0043, -1.225 -0.2321 0.0039, -1.1179 -0.2321 0.0039, -1.1179 0.1616 0.0043, -1.1179 0.1616 0.0039, -1.229 0.1616 0.0043, -1.229 0.1616 0.0039, -1.4348 -0.0303 0.0043, -1.4348 -0.0303 0.0039, -1.4319 0.0067 0.0039, -1.4319 0.0067 0.0043, -1.4214 0.0455 0.0039, -1.4214 0.0455 0.0043, -1.4031 0.0794 0.0039, -1.4031 0.0794 0.0043, -1.3752 0.1102 0.0039, -1.3752 0.1102 0.0043, -1.3748 0.1106 0.0039, -1.3748 0.1106 0.0043, -1.332 0.1393 0.0039, -1.332 0.1393 0.0043, -1.2859 0.1555 0.0039, -1.2859 0.1555 0.0043, -1.2737 -0.2279 0.0039, -1.2737 -0.2279 0.0043, -1.319 -0.2144 0.0039, -1.319 -0.2144 0.0043, -1.3602 -0.1905 0.0039, -1.3602 -0.1905 0.0043, -1.3926 -0.1594 0.0039, -1.3926 -0.1594 0.0043, -1.4151 -0.1242 0.0039, -1.4151 -0.1242 0.0043, -1.4293 -0.083 0.0039, -1.4293 -0.083 0.0043, -1.3558 0.0632 0.0043, -1.3366 0.0835 0.0043, -1.3079 0.102 0.0043, -1.2754 0.1134 0.0043, -1.2288 0.1184 0.0043, -1.1707 0.1184 0.0043, -1.1707 -0.1889 0.0043, -1.2266 -0.1889 0.0043, -1.2682 -0.1851 0.0043, -1.3013 -0.1747 0.0043, -1.3281 -0.1588 0.0043, -1.3502 -0.137 0.0043, -1.3668 -0.1098 0.0043, -1.3784 -0.0728 0.0043, -1.382 -0.0315 0.0043, -1.3786 0.0077 0.0043, -1.3694 0.0389 0.0043, -1.2288 0.1184 0.0039, -1.1707 0.1184 0.0039, -1.2754 0.1134 0.0039, -1.3079 0.102 0.0039, -1.3366 0.0835 0.0039, -1.3558 0.0632 0.0039, -1.3694 0.0389 0.0039, -1.3786 0.0077 0.0039, -1.382 -0.0315 0.0039, -1.3784 -0.0728 0.0039, -1.3668 -0.1098 0.0039, -1.3502 -0.137 0.0039, -1.3281 -0.1588 0.0039, -1.3013 -0.1747 0.0039, -1.2682 -0.1851 0.0039, -1.2266 -0.1889 0.0039, -1.1707 -0.1889 0.0039, -1.0411 -0.1889 0.0043, -1.0411 -0.2321 0.0043, -1.0411 -0.1889 0.0039, -1.0411 -0.2321 0.0039, -0.8298 -0.2321 0.0043, -0.8298 -0.2321 0.0039, -0.8298 0.1616 0.0043, -0.8298 0.1616 0.0039, -1.0315 0.1616 0.0043, -1.0315 0.1616 0.0039, -1.0315 0.1184 0.0043, -1.0315 0.1184 0.0039, -0.8827 0.1184 0.0043, -0.8827 0.1184 0.0039, -0.8827 -0.0113 0.0043, -0.8827 -0.0113 0.0039, -1.0219 -0.0113 0.0043, -1.0219 -0.0113 0.0039, -1.0219 -0.0545 0.0043, -1.0219 -0.0545 0.0039, -0.8827 -0.0545 0.0043, -0.8827 -0.0545 0.0039, -0.8827 -0.1889 0.0043, -0.8827 -0.1889 0.0039, -0.753 -0.1685 0.0043, -0.753 -0.2117 0.0043, -0.753 -0.1685 0.0039, -0.753 -0.2117 0.0039, -0.7111 -0.229 0.0043, -0.6447 -0.2369 0.0043, -0.6447 -0.2369 0.0039, -0.6555 -0.2367 0.0039, -0.6555 -0.2367 0.0043, -0.6713 -0.2345 0.0039, -0.7111 -0.229 0.0039, -0.6215 -0.2345 0.0039, -0.5962 -0.2319 0.0043, -0.5962 -0.2319 0.0039, -0.558 -0.2188 0.0043, -0.558 -0.2188 0.0039, -0.5263 -0.1985 0.0043, -0.5263 -0.1985 0.0039, -0.4968 -0.1674 0.0043, -0.4968 -0.1674 0.0039, -0.4758 -0.13 0.0043, -0.4758 -0.13 0.0039, -0.464 -0.0883 0.0043, -0.464 -0.0883 0.0039, -0.4601 -0.0427 0.0043, -0.4601 -0.0427 0.0039, -0.6208 0.1631 0.0043, -0.6604 0.1664 0.0043, -0.631 0.164 0.0039, -0.6604 0.1664 0.0039, -0.6208 0.1631 0.0039, -0.5769 0.1504 0.0039, -0.5769 0.1504 0.0043, -0.5395 0.1289 0.0039, -0.5395 0.1289 0.0043, -0.504 0.0947 0.0039, -0.504 0.0947 0.0043, -0.4809 0.0579 0.0039, -0.4809 0.0579 0.0043, -0.4658 0.0133 0.0039, -0.4658 0.0133 0.0043, -0.6952 0.164 0.0039, -0.7075 0.1631 0.0043, -0.7075 0.1631 0.0039, -0.753 0.1508 0.0043, -0.753 0.1508 0.0039, -0.753 0.098 0.0043, -0.753 0.098 0.0039, -0.6608 0.1232 0.0043, -0.6608 0.1232 0.0039, -0.7087 0.1169 0.0039, -0.7087 0.1169 0.0043, -0.513 -0.0395 0.0043, -0.513 -0.0395 0.0039, -0.5148 -0.0088 0.0039, -0.5148 -0.0088 0.0043, -0.5253 0.0333 0.0039, -0.5253 0.0333 0.0043, -0.5416 0.0637 0.0039, -0.5416 0.0637 0.0043, -0.5653 0.0899 0.0039, -0.5653 0.0899 0.0043, -0.5926 0.1082 0.0039, -0.5926 0.1082 0.0043, -0.6221 0.1188 0.0039, -0.6221 0.1188 0.0043, -0.652 -0.1937 0.0043, -0.652 -0.1937 0.0039, -0.6152 -0.1896 0.0039, -0.6152 -0.1896 0.0043, -0.5866 -0.179 0.0039, -0.5866 -0.179 0.0043, -0.5624 -0.1628 0.0039, -0.5624 -0.1628 0.0043, -0.5439 -0.1433 0.0039, -0.5439 -0.1433 0.0043, -0.5276 -0.116 0.0039, -0.5276 -0.116 0.0043, -0.5169 -0.0821 0.0039, -0.5169 -0.0821 0.0043, -0.746 -0.1724 0.0039, -0.746 -0.1724 0.0043, -0.7042 -0.1879 0.0039, -0.7042 -0.1879 0.0043, -0.4265 -0.1889 0.0043, -0.4265 -0.2321 0.0043, -0.4265 -0.1889 0.0039, -0.4265 -0.2321 0.0039, -0.2249 -0.2321 0.0043, -0.2249 -0.2321 0.0039, -0.2249 0.1616 0.0043, -0.2249 0.1616 0.0039, -0.2777 0.1616 0.0043, -0.2777 0.1616 0.0039, -0.2777 -0.1889 0.0043, -0.2777 -0.1889 0.0039
            ]
        }
        coordIndex [
            0,1,2,-1,2,1,3,-1,1,4,3,-1,3,4,5,-1,4,6,5,-1,5,6,7,-1,6,8,7,-1,7,8,9,-1,8,10,9,-1,9,10,11,-1,10,12,11,-1,11,12,13,-1,12,14,13,-1,13,14,15,-1,14,0,15,-1,15,0,2,-1,16,8,17,-1,17,8,6,-1,18,14,16,-1,16,14,12,-1,16,12,8,-1,8,12,10,-1,18,19,14,-1,14,19,20,-1,14,20,0,-1,0,20,21,-1,0,21,22,-1,22,23,0,-1,0,23,17,-1,0,17,1,-1,1,17,6,-1,1,6,4,-1,16,17,24,-1,24,17,25,-1,18,16,26,-1,26,16,24,-1,18,26,27,-1,18,27,19,-1,19,27,28,-1,19,28,20,-1,21,20,29,-1,29,20,28,-1,21,29,30,-1,21,30,22,-1,22,30,31,-1,22,31,23,-1,17,23,25,-1,25,23,31,-1,32,33,34,-1,34,33,35,-1,33,36,35,-1,35,36,37,-1,36,38,37,-1,37,38,39,-1,40,41,42,-1,40,42,43,-1,43,42,44,-1,43,44,45,-1,45,44,46,-1,45,46,47,-1,47,46,48,-1,47,48,49,-1,49,48,50,-1,49,50,51,-1,51,50,52,-1,51,52,53,-1,53,52,54,-1,53,54,55,-1,55,54,39,-1,55,39,38,-1,32,34,56,-1,32,56,57,-1,57,56,58,-1,57,58,59,-1,59,58,60,-1,59,60,61,-1,61,60,62,-1,61,62,63,-1,63,62,64,-1,63,64,65,-1,65,64,66,-1,65,66,67,-1,67,66,41,-1,67,41,40,-1,45,47,68,-1,68,47,49,-1,68,49,69,-1,69,49,51,-1,69,51,70,-1,70,51,53,-1,70,53,71,-1,71,53,55,-1,71,55,72,-1,72,55,38,-1,72,38,73,-1,73,38,36,-1,73,36,74,-1,74,36,33,-1,74,33,75,-1,75,33,32,-1,75,32,76,-1,76,32,57,-1,76,57,77,-1,77,57,59,-1,77,59,78,-1,78,59,61,-1,78,61,79,-1,79,61,63,-1,79,63,80,-1,80,63,65,-1,80,65,81,-1,81,65,67,-1,81,67,82,-1,82,67,40,-1,82,40,83,-1,83,40,43,-1,83,43,84,-1,84,43,45,-1,84,45,68,-1,72,73,85,-1,85,73,86,-1,72,85,87,-1,72,87,71,-1,71,87,88,-1,71,88,70,-1,70,88,89,-1,70,89,69,-1,69,89,90,-1,69,90,68,-1,68,90,91,-1,68,91,84,-1,84,91,92,-1,84,92,83,-1,83,92,93,-1,83,93,82,-1,82,93,94,-1,82,94,81,-1,81,94,95,-1,81,95,80,-1,80,95,96,-1,80,96,79,-1,79,96,97,-1,79,97,78,-1,78,97,98,-1,78,98,77,-1,77,98,99,-1,77,99,76,-1,76,99,100,-1,76,100,75,-1,74,75,101,-1,101,75,100,-1,73,74,86,-1,86,74,101,-1,102,103,104,-1,104,103,105,-1,103,106,105,-1,105,106,107,-1,106,108,107,-1,107,108,109,-1,108,110,109,-1,109,110,111,-1,110,112,111,-1,111,112,113,-1,112,114,113,-1,113,114,115,-1,114,116,115,-1,115,116,117,-1,116,118,117,-1,117,118,119,-1,118,120,119,-1,119,120,121,-1,120,122,121,-1,121,122,123,-1,122,124,123,-1,123,124,125,-1,124,102,125,-1,125,102,104,-1,106,103,102,-1,102,124,106,-1,106,124,122,-1,106,122,108,-1,112,110,114,-1,114,110,108,-1,114,108,116,-1,116,108,122,-1,116,122,118,-1,118,122,120,-1,126,127,128,-1,128,127,129,-1,129,127,130,-1,131,132,133,-1,131,133,134,-1,134,133,135,-1,134,135,130,-1,130,135,136,-1,130,136,129,-1,132,131,137,-1,137,131,138,-1,137,138,139,-1,139,138,140,-1,139,140,141,-1,141,140,142,-1,141,142,143,-1,143,142,144,-1,143,144,145,-1,145,144,146,-1,145,146,147,-1,147,146,148,-1,147,148,149,-1,149,148,150,-1,149,150,151,-1,152,153,154,-1,154,153,155,-1,154,156,152,-1,152,156,157,-1,152,157,158,-1,158,157,159,-1,158,159,160,-1,160,159,161,-1,160,161,162,-1,162,161,163,-1,162,163,164,-1,164,163,165,-1,164,165,166,-1,166,165,151,-1,166,151,150,-1,155,153,167,-1,167,153,168,-1,167,168,169,-1,169,168,170,-1,169,170,171,-1,170,172,171,-1,171,172,173,-1,174,175,176,-1,174,176,177,-1,177,176,173,-1,177,173,172,-1,178,179,180,-1,178,180,181,-1,181,180,182,-1,181,182,183,-1,183,182,184,-1,183,184,185,-1,185,184,186,-1,185,186,187,-1,187,186,188,-1,187,188,189,-1,189,188,190,-1,189,190,191,-1,191,190,175,-1,191,175,174,-1,192,193,194,-1,192,194,195,-1,195,194,196,-1,195,196,197,-1,197,196,198,-1,197,198,199,-1,199,198,200,-1,199,200,201,-1,201,200,202,-1,201,202,203,-1,203,202,204,-1,203,204,205,-1,205,204,179,-1,205,179,178,-1,126,128,206,-1,126,206,207,-1,207,206,208,-1,207,208,209,-1,209,208,193,-1,209,193,192,-1,195,131,192,-1,192,131,134,-1,192,134,209,-1,209,134,130,-1,209,130,207,-1,207,130,127,-1,207,127,126,-1,172,170,177,-1,177,170,168,-1,177,168,174,-1,174,168,153,-1,174,153,191,-1,191,153,152,-1,191,152,189,-1,189,152,158,-1,189,158,187,-1,187,158,160,-1,187,160,185,-1,185,160,162,-1,185,162,183,-1,183,162,164,-1,183,164,181,-1,181,164,166,-1,181,166,178,-1,178,166,150,-1,178,150,205,-1,205,150,148,-1,205,148,203,-1,203,148,146,-1,203,146,201,-1,201,146,144,-1,201,144,199,-1,199,144,142,-1,199,142,197,-1,197,142,140,-1,197,140,195,-1,195,140,138,-1,195,138,131,-1,210,211,212,-1,212,211,213,-1,211,214,213,-1,213,214,215,-1,214,216,215,-1,215,216,217,-1,216,218,217,-1,217,218,219,-1,218,220,219,-1,219,220,221,-1,220,210,221,-1,221,210,212,-1,218,216,220,-1,220,216,214,-1,220,214,210,-1,210,214,211,-1,
        ]
    }
}
Shape{
    appearance Appearance {
        material  Material 	{
            diffuseColor 0.5019607843137255 0.5019607843137255 0.5019607843137255
            specularColor 0.25098039215686274 0.25098039215686274 0.25098039215686274
            ambientIntensity 0.502
            transparency 0.0
            shininess 0.5
        }
    }
    geometry IndexedFaceSet {
        ccw TRUE
        solid FALSE
        coord DEF co Coordinate {
            point [
                -1.5721 -0.0785 0.0039, -1.7037 -0.0785 0.0039, -1.6308 0.086 0.0039, -1.6445 0.086 0.0039, -1.6346 0.0996 0.0039, -1.641 0.0996 0.0039, -1.6371 0.1136 0.0039, -1.6384 0.1136 0.0039, -1.1707 0.1184 0.0039, -1.1707 -0.1889 0.0039, -1.2288 0.1184 0.0039, -1.2266 -0.1889 0.0039, -1.2682 -0.1851 0.0039, -1.382 -0.0315 0.0039, -1.3786 0.0077 0.0039, -1.3694 0.0389 0.0039, -1.2754 0.1134 0.0039, -1.3013 -0.1747 0.0039, -1.3281 -0.1588 0.0039, -1.3502 -0.137 0.0039, -1.3668 -0.1098 0.0039, -1.3784 -0.0728 0.0039, -1.3558 0.0632 0.0039, -1.3366 0.0835 0.0039, -1.3079 0.102 0.0039
            ]
        }
        coordIndex [
            0,1,2,-1,2,1,3,-1,2,3,4,-1,4,3,5,-1,4,5,6,-1,6,5,7,-1,8,9,10,-1,10,9,11,-1,10,11,12,-1,13,14,10,-1,10,14,15,-1,10,15,16,-1,12,17,10,-1,10,17,18,-1,10,18,19,-1,19,20,10,-1,10,20,21,-1,10,21,13,-1,22,23,15,-1,15,23,24,-1,15,24,16,-1,
        ]
    }
}
Shape{
    appearance Appearance {
        material  Material 	{
            diffuseColor 1.0 1.0 0.0
            specularColor 0.5019607843137255 0.5019607843137255 0.0
            ambientIntensity 0.886
            transparency 0.0
            shininess 0.5
        }
    }
    geometry IndexedFaceSet {
        ccw TRUE
        solid FALSE
        coord DEF co Coordinate {
            point [
                4.2189 -0.0016 0.0787, 4.2189 -0.0016 0.0, 4.2231 0.0307 0.0787, 4.2231 0.0307 0.0, 4.2356 0.0607 0.0787, 4.2356 0.0607 0.0, 4.2554 0.0866 0.0787, 4.2554 0.0866 0.0, 4.2812 0.1064 0.0787, 4.2812 0.1064 0.0, 4.3113 0.1188 0.0787, 4.3113 0.1188 0.0, 4.3436 0.1231 0.0787, 4.3436 0.1231 0.0, 4.3758 0.1188 0.0787, 4.3758 0.1188 0.0, 4.4059 0.1064 0.0787, 4.4059 0.1064 0.0, 4.4317 0.0866 0.0787, 4.4317 0.0866 0.0, 4.4515 0.0607 0.0787, 4.4515 0.0607 0.0, 4.464 0.0307 0.0787, 4.464 0.0307 0.0, 4.4683 -0.0016 0.0787, 4.4683 -0.0016 0.0, 4.464 -0.0339 0.0787, 4.464 -0.0339 0.0, 4.4515 -0.0639 0.0787, 4.4515 -0.0639 0.0, 4.4317 -0.0898 0.0787, 4.4317 -0.0898 0.0, 4.4059 -0.1096 0.0787, 4.4059 -0.1096 0.0, 4.3758 -0.122 0.0787, 4.3758 -0.122 0.0, 4.3436 -0.1263 0.0787, 4.3436 -0.1263 0.0, 4.3113 -0.122 0.0787, 4.3113 -0.122 0.0, 4.2812 -0.1096 0.0787, 4.2812 -0.1096 0.0, 4.2554 -0.0898 0.0787, 4.2554 -0.0898 0.0, 4.2356 -0.0639 0.0787, 4.2356 -0.0639 0.0, 4.2231 -0.0339 0.0787, 4.2231 -0.0339 0.0
            ]
        }
        coordIndex [
            0,1,2,-1,2,1,3,-1,2,3,4,-1,4,3,5,-1,4,5,6,-1,6,5,7,-1,6,7,8,-1,8,7,9,-1,8,9,10,-1,10,9,11,-1,10,11,12,-1,12,11,13,-1,12,13,14,-1,14,13,15,-1,14,15,16,-1,16,15,17,-1,16,17,18,-1,18,17,19,-1,18,19,20,-1,20,19,21,-1,20,21,22,-1,22,21,23,-1,22,23,24,-1,24,23,25,-1,24,25,26,-1,26,25,27,-1,26,27,28,-1,28,27,29,-1,28,29,30,-1,30,29,31,-1,30,31,32,-1,32,31,33,-1,32,33,34,-1,34,33,35,-1,34,35,36,-1,36,35,37,-1,36,37,38,-1,38,37,39,-1,38,39,40,-1,40,39,41,-1,40,41,42,-1,42,41,43,-1,42,43,44,-1,44,43,45,-1,44,45,46,-1,46,45,47,-1,46,47,0,-1,0,47,1,-1,
        ]
    }
}
Shape{
    appearance Appearance {
        material  Material 	{
            diffuseColor 0.5019607843137255 0.5019607843137255 0.5019607843137255
            specularColor 0.25098039215686274 0.25098039215686274 0.25098039215686274
            ambientIntensity 0.502
            transparency 0.0
            shininess 0.5
        }
    }
    geometry IndexedFaceSet {
        ccw TRUE
        solid FALSE
        coord DEF co Coordinate {
            point [
                -4.0911 2.0687 1.9724, -4.0911 2.0687 1.8543, -4.2311 2.0687 2.0906, -4.3235 2.0687 1.8543, -4.3235 2.0687 2.0906, -4.2561 1.7894 1.8543, -4.2557 1.7892 1.9724, -4.2611 1.7801 1.9724, -4.3967 1.4971 1.8543, -4.5118 1.1938 1.9724, -4.5118 1.1938 1.8543, -4.4074 1.472 1.9724, -4.3957 1.4966 1.9724, -4.7186 1.1938 1.8543, -4.636 1.1938 2.0906, -4.7186 1.1938 2.0906, -4.4814 1.7822 1.8543, -4.6634 1.3576 1.8543, -4.5118 -1.197 1.9724, -4.4074 -1.4752 1.9724, -4.5118 -1.197 1.8543, -4.3967 -1.5003 1.8543, -4.3957 -1.4998 1.9724, -4.2611 -1.7833 1.9724, -4.2561 -1.7926 1.8543, -4.2557 -1.7924 1.9724, -4.0911 -2.0719 1.8543, -4.0911 -2.0719 1.9724, -4.3235 -2.0719 1.8543, -4.2311 -2.0719 2.0906, -4.3235 -2.0719 2.0906, -4.636 -1.197 2.0906, -4.7186 -1.197 1.8543, -4.7186 -1.197 2.0906, -4.6634 -1.3608 1.8543, -4.4814 -1.7854 1.8543, -4.3654 -1.8387 2.0906, -4.5162 -1.521 2.0906, -4.3654 1.8355 2.0906, -4.5162 1.5178 2.0906
            ]
        }
        coordIndex [
            0,1,2,-1,2,1,3,-1,2,3,4,-1,5,1,0,-1,0,6,5,-1,5,6,7,-1,5,7,8,-1,9,10,11,-1,11,10,8,-1,11,8,12,-1,12,8,7,-1,10,9,13,-1,13,9,14,-1,13,14,15,-1,16,3,1,-1,1,5,16,-1,16,5,8,-1,16,8,17,-1,17,8,10,-1,17,10,13,-1,18,19,20,-1,20,19,21,-1,19,22,21,-1,21,22,23,-1,21,23,24,-1,24,23,25,-1,24,25,26,-1,26,25,27,-1,26,27,28,-1,28,27,29,-1,28,29,30,-1,18,20,31,-1,31,20,32,-1,31,32,33,-1,34,32,20,-1,34,20,35,-1,26,28,24,-1,24,28,35,-1,24,35,21,-1,21,35,20,-1,27,25,29,-1,29,25,36,-1,18,31,19,-1,19,31,37,-1,19,37,22,-1,22,37,36,-1,22,36,23,-1,23,36,25,-1,0,2,6,-1,6,2,38,-1,39,14,9,-1,9,11,39,-1,39,11,12,-1,39,12,38,-1,38,12,7,-1,38,7,6,-1,
        ]
    }
}